<?xml version="1.0" standalone="yes"?>

<svg version="1.1" viewBox="0.0 0.0 985.6587926509186 841.1811023622047" fill="none" stroke="none" stroke-linecap="square" stroke-miterlimit="10" xmlns="http://www.w3.org/2000/svg" xmlns:xlink="http://www.w3.org/1999/xlink"><clipPath id="p.0"><path d="m0 0l985.6588 0l0 841.1811l-985.6588 0l0 -841.1811z" clip-rule="nonzero"></path></clipPath><g clip-path="url(#p.0)"><path fill="#000000" fill-opacity="0.0" d="m0 0l985.6588 0l0 841.1811l-985.6588 0z" fill-rule="evenodd"></path><path fill="#cfe2f3" d="m35.706036 92.70079l418.3937 0l0 636.9449l-418.3937 0z" fill-rule="evenodd"></path><path stroke="#000000" stroke-width="1.0" stroke-linejoin="round" stroke-linecap="butt" d="m35.706036 92.70079l418.3937 0l0 636.9449l-418.3937 0z" fill-rule="evenodd"></path><path fill="#000000" d="m120.92761 115.326416q0.484375 0 0.9375 -0.171875q0.453125 -0.1875 0.953125 -0.546875l1.125 1.609375q-0.609375 0.5 -1.40625 0.8125q-0.796875 0.296875 -1.75 0.296875q-1.359375 0 -2.34375 -0.546875q-0.984375 -0.5625 -1.515625 -1.5625q-0.515625 -1.015625 -0.515625 -2.34375q0 -1.328125 0.53125 -2.359375q0.546875 -1.046875 1.546875 -1.640625q1.0 -0.59375 2.34375 -0.59375q0.953125 0 1.703125 0.265625q0.75 0.265625 1.40625 0.796875l-1.09375 1.53125q-0.921875 -0.640625 -1.90625 -0.640625q-1.890625 0 -1.890625 2.640625q0 1.328125 0.484375 1.890625q0.5 0.5625 1.390625 0.5625zm8.771896 -7.046875q1.9375 0 3.03125 1.21875q1.09375 1.21875 1.09375 3.296875q0 2.140625 -1.09375 3.34375q-1.078125 1.1875 -3.03125 1.1875q-1.953125 0 -3.046875 -1.1875q-1.078125 -1.1875 -1.078125 -3.328125q0 -1.359375 0.484375 -2.375q0.484375 -1.015625 1.421875 -1.578125q0.9375 -0.578125 2.21875 -0.578125zm0 1.875q-0.78125 0 -1.15625 0.640625q-0.359375 0.625 -0.359375 2.015625q0 1.40625 0.359375 2.046875q0.375 0.625 1.15625 0.625q0.78125 0 1.140625 -0.640625q0.375 -0.640625 0.375 -2.046875q0 -1.375 -0.375 -2.0q-0.359375 -0.640625 -1.140625 -0.640625zm5.9281464 -1.59375l2.203125 0l0.171875 0.984375q0.578125 -0.640625 1.203125 -0.953125q0.640625 -0.3125 1.4375 -0.3125q1.109375 0 1.71875 0.671875q0.625 0.671875 0.625 1.875l0 6.234375l-2.53125 0l0 -5.5q0 -0.796875 -0.1875 -1.09375q-0.171875 -0.3125 -0.625 -0.3125q-0.390625 0 -0.75 0.25q-0.359375 0.234375 -0.75 0.71875l0 5.9375l-2.515625 0l0 -8.5zm13.006271 6.96875q0.65625 0 1.03125 -0.203125q0.375 -0.203125 0.375 -0.609375q0 -0.28125 -0.15625 -0.453125q-0.15625 -0.171875 -0.578125 -0.34375q-0.40625 -0.171875 -1.28125 -0.40625q-1.28125 -0.34375 -1.953125 -0.9375q-0.671875 -0.609375 -0.671875 -1.65625q0 -1.171875 0.96875 -1.90625q0.96875 -0.734375 2.703125 -0.734375q2.015625 0 3.453125 1.03125l-1.015625 1.5q-1.171875 -0.71875 -2.34375 -0.71875q-0.625 0 -0.921875 0.15625q-0.296875 0.15625 -0.296875 0.5q0 0.21875 0.140625 0.375q0.15625 0.140625 0.578125 0.3125q0.421875 0.15625 1.28125 0.390625q0.90625 0.265625 1.484375 0.5625q0.59375 0.296875 0.90625 0.8125q0.328125 0.515625 0.328125 1.3125q0 0.90625 -0.546875 1.546875q-0.546875 0.625 -1.46875 0.953125q-0.90625 0.3125 -2.0 0.3125q-1.1875 0 -2.15625 -0.328125q-0.953125 -0.34375 -1.625 -0.953125l1.265625 -1.421875q1.15625 0.90625 2.5 0.90625zm13.834396 1.03125q-1.203125 0.765625 -2.78125 0.765625q-1.625 0 -2.453125 -0.828125q-0.828125 -0.828125 -0.828125 -2.328125l0 -3.859375l-1.78125 0l0 -1.75l1.78125 0l0 -1.84375l2.53125 -0.296875l0 2.140625l2.734375 0l-0.25 1.75l-2.484375 0l0 3.859375q0 0.625 0.28125 0.890625q0.296875 0.265625 0.9375 0.265625q0.796875 0 1.484375 -0.375l0.828125 1.609375zm11.559418 -8.0l2.203125 0l0.171875 0.984375q0.578125 -0.640625 1.203125 -0.953125q0.640625 -0.3125 1.4375 -0.3125q1.109375 0 1.71875 0.671875q0.625 0.671875 0.625 1.875l0 6.234375l-2.53125 0l0 -5.5q0 -0.796875 -0.1875 -1.09375q-0.171875 -0.3125 -0.625 -0.3125q-0.390625 0 -0.75 0.25q-0.359375 0.234375 -0.75 0.71875l0 5.9375l-2.515625 0l0 -8.5zm12.115646 5.8125q0 0.59375 0.21875 0.84375q0.21875 0.25 0.65625 0.25q0.375 0 0.78125 -0.25q0.40625 -0.25 0.65625 -0.6875l0 -5.96875l2.53125 0l0 8.5l-2.21875 0l-0.109375 -0.984375q-0.40625 0.59375 -1.109375 0.921875q-0.703125 0.328125 -1.5 0.328125q-1.1875 0 -1.8125 -0.6875q-0.609375 -0.703125 -0.609375 -1.953125l0 -6.125l2.515625 0l0 5.8125zm13.365646 -6.09375q0.90625 0 1.328125 0.609375q0.4375 0.59375 0.4375 1.890625l0 6.28125l-2.15625 0l0 -6.0q0 -0.46875 -0.09375 -0.640625q-0.09375 -0.171875 -0.328125 -0.171875q-0.453125 0 -0.875 0.5625l0 6.25l-1.796875 0l0 -6.0q0 -0.46875 -0.09375 -0.640625q-0.078125 -0.171875 -0.328125 -0.171875q-0.4375 0 -0.875 0.5625l0 6.25l-2.1875 0l0 -8.5l1.828125 0l0.1875 0.8125q0.40625 -0.5625 0.8125 -0.828125q0.421875 -0.265625 0.953125 -0.265625q0.5 0 0.828125 0.25q0.34375 0.25 0.484375 0.75q0.875 -1.0 1.875 -1.0zm5.8343964 1.15625q0.40625 -0.546875 0.96875 -0.84375q0.578125 -0.3125 1.21875 -0.3125q1.578125 0 2.34375 1.1875q0.78125 1.171875 0.78125 3.328125q0 1.328125 -0.40625 2.359375q-0.390625 1.015625 -1.15625 1.59375q-0.765625 0.578125 -1.84375 0.578125q-0.640625 0 -1.1875 -0.265625q-0.53125 -0.265625 -0.90625 -0.765625l-0.09375 0.765625l-2.234375 0l0 -11.875l2.515625 -0.265625l0 4.515625zm1.25 6.0625q1.46875 0 1.46875 -2.671875q0 -1.5 -0.34375 -2.078125q-0.328125 -0.59375 -0.984375 -0.59375q-0.796875 0 -1.390625 0.984375l0 3.578125q0.5 0.78125 1.25 0.78125zm8.021896 -1.9375q0.234375 1.9375 2.046875 1.9375q1.09375 0 2.171875 -0.703125l1.015625 1.375q-0.625 0.53125 -1.5 0.84375q-0.859375 0.3125 -1.890625 0.3125q-1.421875 0 -2.421875 -0.5625q-0.984375 -0.5625 -1.5 -1.578125q-0.5 -1.015625 -0.5 -2.359375q0 -1.28125 0.484375 -2.3125q0.5 -1.03125 1.421875 -1.625q0.9375 -0.609375 2.234375 -0.609375q1.21875 0 2.109375 0.515625q0.90625 0.515625 1.390625 1.5q0.484375 0.984375 0.484375 2.34375q0 0.53125 -0.046875 0.921875l-5.5 0zm1.5625 -3.59375q-0.6875 0 -1.109375 0.515625q-0.40625 0.5 -0.484375 1.53125l3.125 0q-0.03125 -2.046875 -1.53125 -2.046875zm12.318771 -1.65625q0.78125 0 1.421875 0.25l-0.46875 3.5625l-1.609375 0l0 -1.578125q-0.703125 0.125 -1.25 0.765625q-0.53125 0.640625 -0.84375 1.625l0 2.421875l1.6875 0l0 1.703125l-5.328125 0l0 -1.703125l1.109375 0l0 -5.109375l-1.109375 0l0 -1.6875l3.046875 0l0.453125 1.90625q0.46875 -1.09375 1.171875 -1.625q0.703125 -0.53125 1.71875 -0.53125zm6.5375214 7.21875q0.65625 0 1.03125 -0.203125q0.375 -0.203125 0.375 -0.609375q0 -0.28125 -0.15625 -0.453125q-0.15625 -0.171875 -0.578125 -0.34375q-0.40625 -0.171875 -1.28125 -0.40625q-1.28125 -0.34375 -1.953125 -0.9375q-0.671875 -0.609375 -0.671875 -1.65625q0 -1.171875 0.96875 -1.90625q0.96875 -0.734375 2.703125 -0.734375q2.015625 0 3.453125 1.03125l-1.015625 1.5q-1.171875 -0.71875 -2.34375 -0.71875q-0.625 0 -0.921875 0.15625q-0.296875 0.15625 -0.296875 0.5q0 0.21875 0.140625 0.375q0.15625 0.140625 0.578125 0.3125q0.421875 0.15625 1.28125 0.390625q0.90625 0.265625 1.484375 0.5625q0.59375 0.296875 0.90625 0.8125q0.328125 0.515625 0.328125 1.3125q0 0.90625 -0.546875 1.546875q-0.546875 0.625 -1.46875 0.953125q-0.90625 0.3125 -2.0 0.3125q-1.1875 0 -2.15625 -0.328125q-0.953125 -0.34375 -1.625 -0.953125l1.265625 -1.421875q1.15625 0.90625 2.5 0.90625zm23.106293 -4.125l-7.265625 0l0 -1.984375l7.265625 0l0 1.984375zm0 3.34375l-7.265625 0l0 -1.96875l7.265625 0l0 1.96875zm13.262543 -10.859375l4.921875 0l0 1.890625l-2.546875 0l0 11.375l2.546875 0l0 1.875l-4.921875 0l0 -15.140625zm15.912506 11.25l0 1.921875l-7.203125 0l0 -1.921875l2.671875 0l0 -6.6875l-2.28125 1.4375l-1.078125 -1.734375l3.59375 -2.1875l2.234375 0l0 9.171875l2.0625 0zm5.5844116 -1.375q0.75 0 1.25 0.5q0.5 0.5 0.5 1.234375q0 0.4375 -0.15625 0.890625q-0.140625 0.4375 -0.53125 1.3125l-1.15625 2.609375l-1.6875 0l0.8125 -3.390625q-0.359375 -0.234375 -0.5625 -0.609375q-0.1875 -0.375 -0.1875 -0.828125q0 -0.71875 0.484375 -1.21875q0.5 -0.5 1.234375 -0.5zm22.356262 -5.984375l-4.046875 0l0 2.40625q0.78125 -0.375 1.625 -0.375q0.875 0 1.578125 0.4375q0.71875 0.4375 1.125 1.265625q0.421875 0.8125 0.421875 1.90625q0 1.109375 -0.546875 2.015625q-0.546875 0.890625 -1.546875 1.390625q-0.984375 0.5 -2.265625 0.5q-1.15625 0 -2.09375 -0.4375q-0.9375 -0.4375 -1.578125 -1.21875l1.453125 -1.328125q0.40625 0.515625 0.921875 0.796875q0.515625 0.265625 1.109375 0.265625q0.875 0 1.40625 -0.53125q0.53125 -0.546875 0.53125 -1.40625q0 -1.90625 -1.5 -1.90625q-0.6875 0 -1.34375 0.359375l-1.71875 0l0 -5.953125l6.75 0l-0.28125 1.8125zm6.4437866 5.984375q0.75 0 1.25 0.5q0.5 0.5 0.5 1.234375q0 0.4375 -0.15625 0.890625q-0.140625 0.4375 -0.53125 1.3125l-1.15625 2.609375l-1.6875 0l0.8125 -3.390625q-0.359375 -0.234375 -0.5625 -0.609375q-0.1875 -0.375 -0.1875 -0.828125q0 -0.71875 0.484375 -1.21875q0.5 -0.5 1.234375 -0.5zm23.215668 1.375l0 1.921875l-7.203125 0l0 -1.921875l2.671875 0l0 -6.6875l-2.28125 1.4375l-1.078125 -1.734375l3.59375 -2.1875l2.234375 0l0 9.171875l2.0625 0zm5.584381 -9.453125q1.96875 0 2.984375 1.515625q1.015625 1.515625 1.015625 4.296875q0 2.78125 -1.015625 4.3125q-1.015625 1.515625 -2.984375 1.515625q-1.96875 0 -2.984375 -1.515625q-1.015625 -1.53125 -1.015625 -4.3125q0 -2.78125 1.015625 -4.296875q1.015625 -1.515625 2.984375 -1.515625zm0 1.84375q-0.796875 0 -1.171875 0.921875q-0.375 0.90625 -0.375 3.046875q0 2.1875 0.375 3.109375q0.375 0.90625 1.171875 0.90625q0.8125 0 1.171875 -0.90625q0.375 -0.921875 0.375 -3.109375q0 -2.171875 -0.390625 -3.0625q-0.375 -0.90625 -1.15625 -0.90625zm-0.015625 2.96875q0.453125 0 0.75 0.3125q0.3125 0.296875 0.3125 0.734375q0 0.4375 -0.3125 0.75q-0.296875 0.296875 -0.75 0.296875q-0.4375 0 -0.734375 -0.296875q-0.296875 -0.3125 -0.296875 -0.75q0 -0.4375 0.296875 -0.734375q0.296875 -0.3125 0.734375 -0.3125zm11.928162 8.53125l-4.9375 0l0 -1.890625l2.546875 0l0 -11.359375l-2.546875 0l0 -1.890625l4.9375 0l0 15.140625zm7.2875366 -10.59375q0.703125 0 1.1875 0.5q0.484375 0.5 0.484375 1.1875q0 0.6875 -0.484375 1.171875q-0.484375 0.484375 -1.1875 0.484375q-0.703125 0 -1.1875 -0.484375q-0.484375 -0.484375 -0.484375 -1.171875q0 -0.6875 0.484375 -1.1875q0.484375 -0.5 1.1875 -0.5zm0 5.46875q0.71875 0 1.1875 0.484375q0.484375 0.484375 0.484375 1.1875q0 0.40625 -0.15625 0.859375q-0.140625 0.453125 -0.5 1.265625l-1.109375 2.53125l-1.640625 0l0.78125 -3.28125q-0.34375 -0.234375 -0.53125 -0.59375q-0.1875 -0.375 -0.1875 -0.796875q0 -0.703125 0.46875 -1.171875q0.484375 -0.484375 1.203125 -0.484375z" fill-rule="nonzero"></path><path fill="#38761d" d="m66.03937 136.47244l357.92126 0l0 68.47244l-357.92126 0z" fill-rule="evenodd"></path><path stroke="#000000" stroke-width="1.0" stroke-linejoin="round" stroke-linecap="butt" d="m66.03937 136.47244l357.92126 0l0 68.47244l-357.92126 0z" fill-rule="evenodd"></path><path fill="#ffffff" d="m249.68437 175.39429l0 2.234375l-8.390625 0l0 -2.234375l3.109375 0l0 -7.796875l-2.671875 1.671875l-1.25 -2.03125l4.1875 -2.53125l2.609375 0l0 10.6875l2.40625 0z" fill-rule="nonzero"></path><path fill="#1155cc" d="m65.94102 364.77823l357.92126 0l0 68.47244l-357.92126 0z" fill-rule="evenodd"></path><path stroke="#000000" stroke-width="1.0" stroke-linejoin="round" stroke-linecap="butt" d="m65.94102 364.77823l357.92126 0l0 68.47244l-357.92126 0z" fill-rule="evenodd"></path><path fill="#ffffff" d="m248.57039 395.10632l-4.71875 0l0 2.8125q0.921875 -0.4375 1.90625 -0.4375q1.015625 0 1.84375 0.515625q0.828125 0.515625 1.3125 1.46875q0.484375 0.953125 0.484375 2.21875q0 1.296875 -0.640625 2.34375q-0.625 1.046875 -1.78125 1.640625q-1.15625 0.578125 -2.65625 0.578125q-1.359375 0 -2.453125 -0.5q-1.09375 -0.515625 -1.828125 -1.4375l1.6875 -1.546875q0.46875 0.59375 1.078125 0.921875q0.609375 0.3125 1.296875 0.3125q1.03125 0 1.640625 -0.625q0.609375 -0.625 0.609375 -1.640625q0 -2.21875 -1.75 -2.21875q-0.796875 0 -1.5625 0.4375l-2.0 0l0 -6.9375l7.875 0l-0.34375 2.09375z" fill-rule="nonzero"></path><path fill="#fff2cc" d="m65.94209 593.0853l357.92126 0l0 68.47241l-357.92126 0z" fill-rule="evenodd"></path><path stroke="#000000" stroke-width="1.0" stroke-linejoin="round" stroke-linecap="butt" d="m65.94209 593.0853l357.92126 0l0 68.47241l-357.92126 0z" fill-rule="evenodd"></path><path fill="#000000" d="m243.99022 632.00714l0 2.234375l-8.390625 0l0 -2.234375l3.109375 0l0 -7.796875l-2.671875 1.671875l-1.25 -2.03125l4.1875 -2.53125l2.609375 0l0 10.6875l2.40625 0zm6.506256 -11.03125q2.296875 0 3.484375 1.78125q1.1875 1.765625 1.1875 4.984375q0 3.25 -1.1875 5.03125q-1.1875 1.78125 -3.484375 1.78125q-2.296875 0 -3.484375 -1.78125q-1.171875 -1.78125 -1.171875 -5.03125q0 -3.21875 1.171875 -4.984375q1.1875 -1.78125 3.484375 -1.78125zm0 2.140625q-0.921875 0 -1.375 1.078125q-0.4375 1.078125 -0.4375 3.546875q0 2.5625 0.4375 3.625q0.453125 1.0625 1.375 1.0625q0.953125 0 1.375 -1.0625q0.421875 -1.0625 0.421875 -3.625q0 -2.515625 -0.4375 -3.5625q-0.4375 -1.0625 -1.359375 -1.0625zm-0.015625 3.46875q0.515625 0 0.875 0.359375q0.359375 0.359375 0.359375 0.859375q0 0.53125 -0.359375 0.890625q-0.359375 0.34375 -0.875 0.34375q-0.515625 0 -0.875 -0.34375q-0.34375 -0.359375 -0.34375 -0.890625q0 -0.5 0.34375 -0.859375q0.359375 -0.359375 0.875 -0.359375z" fill-rule="nonzero"></path><path fill="#efefef" d="m608.80054 136.47244l352.34644 0l0 68.47244l-352.34644 0z" fill-rule="evenodd"></path><path stroke="#000000" stroke-width="1.0" stroke-linejoin="round" stroke-linecap="butt" d="m608.80054 136.47244l352.34644 0l0 68.47244l-352.34644 0z" fill-rule="evenodd"></path><path fill="#000000" d="m720.3213 168.00366l0 9.625l-1.6875 0l0 -9.625l1.6875 0zm0.375 -3.015625q0 0.25 -0.09375 0.46875q-0.09375 0.203125 -0.265625 0.375q-0.171875 0.15625 -0.390625 0.25q-0.21875 0.09375 -0.453125 0.09375q-0.25 0 -0.46875 -0.09375q-0.21875 -0.09375 -0.390625 -0.25q-0.15625 -0.171875 -0.25 -0.375q-0.09375 -0.21875 -0.09375 -0.46875q0 -0.25 0.09375 -0.46875q0.09375 -0.234375 0.25 -0.390625q0.171875 -0.171875 0.390625 -0.265625q0.21875 -0.09375 0.46875 -0.09375q0.234375 0 0.453125 0.09375q0.21875 0.09375 0.390625 0.265625q0.171875 0.15625 0.265625 0.390625q0.09375 0.21875 0.09375 0.46875zm5.432251 12.796875q-1.140625 0 -1.75 -0.640625q-0.609375 -0.640625 -0.609375 -1.828125l0 -5.890625l-1.15625 0q-0.15625 0 -0.265625 -0.09375q-0.09375 -0.09375 -0.09375 -0.28125l0 -0.671875l1.578125 -0.203125l0.390625 -2.96875q0.015625 -0.140625 0.109375 -0.234375q0.109375 -0.09375 0.28125 -0.09375l0.84375 0l0 3.3125l2.765625 0l0 1.234375l-2.765625 0l0 5.765625q0 0.609375 0.296875 0.90625q0.296875 0.296875 0.765625 0.296875q0.265625 0 0.453125 -0.0625q0.203125 -0.078125 0.34375 -0.15625q0.140625 -0.09375 0.234375 -0.15625q0.109375 -0.078125 0.1875 -0.078125q0.125 0 0.234375 0.15625l0.484375 0.8125q-0.4375 0.40625 -1.0625 0.640625q-0.609375 0.234375 -1.265625 0.234375zm7.8650513 -9.9375q0.859375 0 1.59375 0.296875q0.734375 0.28125 1.265625 0.828125q0.53125 0.546875 0.828125 1.359375q0.296875 0.796875 0.296875 1.828125q0 0.390625 -0.09375 0.53125q-0.078125 0.125 -0.3125 0.125l-6.40625 0q0.015625 0.921875 0.234375 1.59375q0.234375 0.671875 0.625 1.125q0.40625 0.453125 0.953125 0.671875q0.5625 0.21875 1.25 0.21875q0.640625 0 1.09375 -0.140625q0.453125 -0.140625 0.78125 -0.3125q0.34375 -0.171875 0.5625 -0.3125q0.234375 -0.15625 0.390625 -0.15625q0.203125 0 0.328125 0.15625l0.46875 0.625q-0.3125 0.375 -0.75 0.65625q-0.4375 0.28125 -0.9375 0.46875q-0.5 0.171875 -1.03125 0.265625q-0.53125 0.09375 -1.046875 0.09375q-1.0 0 -1.84375 -0.34375q-0.84375 -0.34375 -1.453125 -0.984375q-0.609375 -0.65625 -0.953125 -1.609375q-0.34375 -0.96875 -0.34375 -2.203125q0 -1.015625 0.3125 -1.890625q0.3125 -0.875 0.890625 -1.515625q0.578125 -0.640625 1.40625 -1.0q0.84375 -0.375 1.890625 -0.375zm0.03125 1.25q-1.21875 0 -1.921875 0.71875q-0.703125 0.703125 -0.875 1.953125l5.234375 0q0 -0.59375 -0.171875 -1.078125q-0.15625 -0.484375 -0.46875 -0.84375q-0.3125 -0.359375 -0.765625 -0.546875q-0.453125 -0.203125 -1.03125 -0.203125zm5.932129 8.53125l0 -9.625l0.96875 0q0.265625 0 0.375 0.109375q0.109375 0.09375 0.140625 0.359375l0.125 1.5q0.484375 -1.0 1.203125 -1.5625q0.734375 -0.578125 1.71875 -0.578125q0.390625 0 0.71875 0.09375q0.328125 0.09375 0.59375 0.25l-0.21875 1.265625q-0.0625 0.234375 -0.296875 0.234375q-0.125 0 -0.40625 -0.078125q-0.265625 -0.09375 -0.765625 -0.09375q-0.875 0 -1.46875 0.515625q-0.59375 0.5 -1.0 1.484375l0 6.125l-1.6875 0zm14.580933 0l-0.75 0q-0.25 0 -0.40625 -0.078125q-0.140625 -0.078125 -0.1875 -0.328125l-0.1875 -0.890625q-0.390625 0.34375 -0.75 0.625q-0.359375 0.265625 -0.765625 0.453125q-0.390625 0.1875 -0.84375 0.28125q-0.453125 0.09375 -1.0 0.09375q-0.5625 0 -1.046875 -0.15625q-0.484375 -0.15625 -0.859375 -0.46875q-0.359375 -0.3125 -0.578125 -0.796875q-0.203125 -0.484375 -0.203125 -1.140625q0 -0.5625 0.3125 -1.09375q0.3125 -0.53125 1.0 -0.9375q0.703125 -0.40625 1.828125 -0.671875q1.140625 -0.265625 2.78125 -0.296875l0 -0.75q0 -1.125 -0.484375 -1.6875q-0.484375 -0.578125 -1.421875 -0.578125q-0.609375 0 -1.046875 0.15625q-0.421875 0.15625 -0.734375 0.359375q-0.296875 0.1875 -0.53125 0.34375q-0.21875 0.15625 -0.4375 0.15625q-0.171875 0 -0.296875 -0.09375q-0.125 -0.09375 -0.203125 -0.21875l-0.296875 -0.546875q0.796875 -0.765625 1.71875 -1.140625q0.921875 -0.390625 2.03125 -0.390625q0.8125 0 1.4375 0.265625q0.625 0.265625 1.046875 0.75q0.4375 0.46875 0.65625 1.140625q0.21875 0.671875 0.21875 1.484375l0 6.15625zm-4.390625 -1.03125q0.453125 0 0.8125 -0.09375q0.375 -0.09375 0.703125 -0.25q0.328125 -0.171875 0.625 -0.40625q0.296875 -0.25 0.59375 -0.546875l0 -2.0q-1.171875 0.03125 -2.0 0.1875q-0.8125 0.140625 -1.328125 0.375q-0.5 0.234375 -0.734375 0.5625q-0.234375 0.328125 -0.234375 0.71875q0 0.390625 0.125 0.671875q0.125 0.265625 0.328125 0.4375q0.203125 0.171875 0.484375 0.265625q0.296875 0.078125 0.625 0.078125zm9.693115 1.1875q-1.140625 0 -1.75 -0.640625q-0.609375 -0.640625 -0.609375 -1.828125l0 -5.890625l-1.15625 0q-0.15625 0 -0.265625 -0.09375q-0.09375 -0.09375 -0.09375 -0.28125l0 -0.671875l1.578125 -0.203125l0.390625 -2.96875q0.015625 -0.140625 0.109375 -0.234375q0.109375 -0.09375 0.28125 -0.09375l0.84375 0l0 3.3125l2.765625 0l0 1.234375l-2.765625 0l0 5.765625q0 0.609375 0.296875 0.90625q0.296875 0.296875 0.765625 0.296875q0.265625 0 0.453125 -0.0625q0.203125 -0.078125 0.34375 -0.15625q0.140625 -0.09375 0.234375 -0.15625q0.109375 -0.078125 0.1875 -0.078125q0.125 0 0.234375 0.15625l0.484375 0.8125q-0.4375 0.40625 -1.0625 0.640625q-0.609375 0.234375 -1.265625 0.234375zm7.9431763 -9.9375q1.0625 0 1.90625 0.359375q0.84375 0.34375 1.4375 1.0q0.59375 0.640625 0.90625 1.5625q0.328125 0.90625 0.328125 2.046875q0 1.140625 -0.328125 2.046875q-0.3125 0.90625 -0.90625 1.5625q-0.59375 0.640625 -1.4375 1.0q-0.84375 0.34375 -1.90625 0.34375q-1.046875 0 -1.90625 -0.34375q-0.84375 -0.359375 -1.453125 -1.0q-0.59375 -0.65625 -0.921875 -1.5625q-0.3125 -0.90625 -0.3125 -2.046875q0 -1.140625 0.3125 -2.046875q0.328125 -0.921875 0.921875 -1.5625q0.609375 -0.65625 1.453125 -1.0q0.859375 -0.359375 1.90625 -0.359375zm0 8.59375q1.421875 0 2.125 -0.953125q0.703125 -0.953125 0.703125 -2.671875q0 -1.71875 -0.703125 -2.671875q-0.703125 -0.96875 -2.125 -0.96875q-0.71875 0 -1.25 0.25q-0.53125 0.25 -0.890625 0.71875q-0.359375 0.46875 -0.53125 1.15625q-0.171875 0.671875 -0.171875 1.515625q0 0.859375 0.171875 1.53125q0.171875 0.671875 0.53125 1.140625q0.359375 0.453125 0.890625 0.703125q0.53125 0.25 1.25 0.25zm6.482239 1.1875l0 -9.625l0.96875 0q0.265625 0 0.375 0.109375q0.109375 0.09375 0.140625 0.359375l0.125 1.5q0.484375 -1.0 1.203125 -1.5625q0.734375 -0.578125 1.71875 -0.578125q0.390625 0 0.71875 0.09375q0.328125 0.09375 0.59375 0.25l-0.21875 1.265625q-0.0625 0.234375 -0.296875 0.234375q-0.125 0 -0.40625 -0.078125q-0.265625 -0.09375 -0.765625 -0.09375q-0.875 0 -1.46875 0.515625q-0.59375 0.5 -1.0 1.484375l0 6.125l-1.6875 0zm16.174744 -13.609375l0 1.5l-6.546875 0l0 4.75l5.59375 0l0 1.5l-5.59375 0l0 5.859375l-1.84375 0l0 -13.609375l8.390625 0zm3.3562622 3.984375l0 6.140625q0 1.09375 0.5 1.6875q0.515625 0.59375 1.53125 0.59375q0.734375 0 1.390625 -0.34375q0.65625 -0.359375 1.203125 -0.984375l0 -7.09375l1.703125 0l0 9.625l-1.015625 0q-0.359375 0 -0.453125 -0.34375l-0.125 -1.046875q-0.640625 0.703125 -1.421875 1.125q-0.765625 0.421875 -1.78125 0.421875q-0.78125 0 -1.390625 -0.265625q-0.59375 -0.265625 -1.015625 -0.734375q-0.40625 -0.484375 -0.609375 -1.15625q-0.203125 -0.671875 -0.203125 -1.484375l0 -6.140625l1.6875 0zm8.9198 9.625l0 -9.625l1.0 0q0.359375 0 0.453125 0.359375l0.140625 1.03125q0.625 -0.6875 1.390625 -1.109375q0.78125 -0.4375 1.796875 -0.4375q0.796875 0 1.390625 0.265625q0.609375 0.265625 1.015625 0.75q0.40625 0.46875 0.609375 1.15625q0.203125 0.671875 0.203125 1.484375l0 6.125l-1.6875 0l0 -6.125q0 -1.09375 -0.5 -1.6875q-0.5 -0.609375 -1.515625 -0.609375q-0.75 0 -1.40625 0.359375q-0.65625 0.359375 -1.203125 0.96875l0 7.09375l-1.6875 0zm16.935364 -7.90625q-0.078125 0.09375 -0.15625 0.15625q-0.078125 0.0625 -0.21875 0.0625q-0.140625 0 -0.3125 -0.125q-0.15625 -0.125 -0.421875 -0.265625q-0.25 -0.140625 -0.625 -0.25q-0.359375 -0.125 -0.890625 -0.125q-0.703125 0 -1.25 0.25q-0.53125 0.25 -0.90625 0.734375q-0.359375 0.46875 -0.546875 1.140625q-0.1875 0.671875 -0.1875 1.515625q0 0.875 0.203125 1.5625q0.203125 0.671875 0.5625 1.140625q0.359375 0.453125 0.875 0.703125q0.515625 0.234375 1.171875 0.234375q0.609375 0 1.0 -0.140625q0.40625 -0.15625 0.671875 -0.328125q0.265625 -0.1875 0.4375 -0.328125q0.171875 -0.15625 0.34375 -0.15625q0.21875 0 0.328125 0.15625l0.46875 0.625q-0.625 0.765625 -1.5625 1.125q-0.9375 0.359375 -1.984375 0.359375q-0.90625 0 -1.6875 -0.328125q-0.765625 -0.34375 -1.34375 -0.96875q-0.5625 -0.640625 -0.890625 -1.5625q-0.328125 -0.921875 -0.328125 -2.09375q0 -1.078125 0.296875 -1.984375q0.296875 -0.921875 0.875 -1.578125q0.578125 -0.65625 1.421875 -1.03125q0.84375 -0.375 1.9375 -0.375q1.0 0 1.78125 0.328125q0.78125 0.328125 1.375 0.9375l-0.4375 0.609375zm5.0562134 8.0625q-1.140625 0 -1.75 -0.640625q-0.609375 -0.640625 -0.609375 -1.828125l0 -5.890625l-1.15625 0q-0.15625 0 -0.265625 -0.09375q-0.09375 -0.09375 -0.09375 -0.28125l0 -0.671875l1.578125 -0.203125l0.390625 -2.96875q0.015625 -0.140625 0.109375 -0.234375q0.109375 -0.09375 0.28125 -0.09375l0.84375 0l0 3.3125l2.765625 0l0 1.234375l-2.765625 0l0 5.765625q0 0.609375 0.296875 0.90625q0.296875 0.296875 0.765625 0.296875q0.265625 0 0.453125 -0.0625q0.203125 -0.078125 0.34375 -0.15625q0.140625 -0.09375 0.234375 -0.15625q0.109375 -0.078125 0.1875 -0.078125q0.125 0 0.234375 0.15625l0.484375 0.8125q-0.4375 0.40625 -1.0625 0.640625q-0.609375 0.234375 -1.265625 0.234375zm5.9275513 -9.78125l0 9.625l-1.6875 0l0 -9.625l1.6875 0zm0.375 -3.015625q0 0.25 -0.09375 0.46875q-0.09375 0.203125 -0.265625 0.375q-0.171875 0.15625 -0.390625 0.25q-0.21875 0.09375 -0.453125 0.09375q-0.25 0 -0.46875 -0.09375q-0.21875 -0.09375 -0.390625 -0.25q-0.15625 -0.171875 -0.25 -0.375q-0.09375 -0.21875 -0.09375 -0.46875q0 -0.25 0.09375 -0.46875q0.09375 -0.234375 0.25 -0.390625q0.171875 -0.171875 0.390625 -0.265625q0.21875 -0.09375 0.46875 -0.09375q0.234375 0 0.453125 0.09375q0.21875 0.09375 0.390625 0.265625q0.171875 0.15625 0.265625 0.390625q0.09375 0.21875 0.09375 0.46875zm6.416626 2.859375q1.0625 0 1.90625 0.359375q0.84375 0.34375 1.4375 1.0q0.59375 0.640625 0.90625 1.5625q0.328125 0.90625 0.328125 2.046875q0 1.140625 -0.328125 2.046875q-0.3125 0.90625 -0.90625 1.5625q-0.59375 0.640625 -1.4375 1.0q-0.84375 0.34375 -1.90625 0.34375q-1.046875 0 -1.90625 -0.34375q-0.84375 -0.359375 -1.453125 -1.0q-0.59375 -0.65625 -0.921875 -1.5625q-0.3125 -0.90625 -0.3125 -2.046875q0 -1.140625 0.3125 -2.046875q0.328125 -0.921875 0.921875 -1.5625q0.609375 -0.65625 1.453125 -1.0q0.859375 -0.359375 1.90625 -0.359375zm0 8.59375q1.421875 0 2.125 -0.953125q0.703125 -0.953125 0.703125 -2.671875q0 -1.71875 -0.703125 -2.671875q-0.703125 -0.96875 -2.125 -0.96875q-0.71875 0 -1.25 0.25q-0.53125 0.25 -0.890625 0.71875q-0.359375 0.46875 -0.53125 1.15625q-0.171875 0.671875 -0.171875 1.515625q0 0.859375 0.171875 1.53125q0.171875 0.671875 0.53125 1.140625q0.359375 0.453125 0.890625 0.703125q0.53125 0.25 1.25 0.25zm6.482239 1.1875l0 -9.625l1.0 0q0.359375 0 0.453125 0.359375l0.140625 1.03125q0.625 -0.6875 1.390625 -1.109375q0.78125 -0.4375 1.796875 -0.4375q0.796875 0 1.390625 0.265625q0.609375 0.265625 1.015625 0.75q0.40625 0.46875 0.609375 1.15625q0.203125 0.671875 0.203125 1.484375l0 6.125l-1.6875 0l0 -6.125q0 -1.09375 -0.5 -1.6875q-0.5 -0.609375 -1.515625 -0.609375q-0.75 0 -1.40625 0.359375q-0.65625 0.359375 -1.203125 0.96875l0 7.09375l-1.6875 0z" fill-rule="nonzero"></path><path fill="#000000" fill-opacity="0.0" d="m423.96063 170.70866l184.8504 0" fill-rule="evenodd"></path><path stroke="#000000" stroke-width="3.0" stroke-linejoin="round" stroke-linecap="butt" d="m423.96063 170.70866l166.8504 0" fill-rule="evenodd"></path><path fill="#000000" stroke="#000000" stroke-width="3.0" stroke-linecap="butt" d="m590.81104 175.66386l13.614258 -4.9552l-13.614258 -4.9552z" fill-rule="evenodd"></path><path fill="#000000" fill-opacity="0.0" d="m784.97375 204.94489c0 39.9579 -197.57477 61.649506 -372.01562 79.9158c-174.44089 18.266296 -325.7479 33.1073 -372.01562 57.08145c-46.26773 23.974182 12.503822 57.081482 25.00764 57.081482" fill-rule="evenodd"></path><path stroke="#434343" stroke-width="3.0" stroke-linejoin="round" stroke-linecap="butt" stroke-dasharray="12.0,9.0,3.0,9.0" d="m784.97375 204.94489c0 39.9579 -197.57477 61.649506 -372.01562 79.9158c-174.44089 18.266296 -325.7479 33.1073 -372.01562 57.081482c-23.133867 11.987061 -20.007912 26.257416 -9.535513 37.531006c2.6181011 2.8184204 5.6953526 5.449524 8.936235 7.8108215c1.6204453 1.1806641 3.2817955 2.2938538 4.947113 3.3292847c0.83265686 0.51776123 1.6663094 1.0160217 2.496334 1.4935608c0.41501236 0.23873901 0.829113 0.47235107 1.2417374 0.70062256l0.024272919 0.0132751465" fill-rule="evenodd"></path><path fill="#434343" stroke="#434343" stroke-width="3.0" stroke-linecap="butt" d="m47.34509 397.4724l14.487972 0.039886475l-11.072807 -9.343231z" fill-rule="evenodd"></path><path fill="#efefef" d="m608.7996 364.77954l352.3465 0l0 68.47244l-352.3465 0z" fill-rule="evenodd"></path><path stroke="#000000" stroke-width="1.0" stroke-linejoin="round" stroke-linecap="butt" d="m608.7996 364.77954l352.3465 0l0 68.47244l-352.3465 0z" fill-rule="evenodd"></path><path fill="#000000" d="m720.3204 396.31076l0 9.625l-1.6875 0l0 -9.625l1.6875 0zm0.375 -3.015625q0 0.25 -0.09375 0.46875q-0.09375 0.203125 -0.265625 0.375q-0.171875 0.15625 -0.390625 0.25q-0.21875 0.09375 -0.453125 0.09375q-0.25 0 -0.46875 -0.09375q-0.21875 -0.09375 -0.390625 -0.25q-0.15625 -0.171875 -0.25 -0.375q-0.09375 -0.21875 -0.09375 -0.46875q0 -0.25 0.09375 -0.46875q0.09375 -0.234375 0.25 -0.390625q0.171875 -0.171875 0.390625 -0.265625q0.21875 -0.09375 0.46875 -0.09375q0.234375 0 0.453125 0.09375q0.21875 0.09375 0.390625 0.265625q0.171875 0.15625 0.265625 0.390625q0.09375 0.21875 0.09375 0.46875zm5.432251 12.796875q-1.140625 0 -1.75 -0.640625q-0.609375 -0.640625 -0.609375 -1.828125l0 -5.890625l-1.15625 0q-0.15625 0 -0.265625 -0.09375q-0.09375 -0.09375 -0.09375 -0.28125l0 -0.671875l1.578125 -0.203125l0.390625 -2.96875q0.015625 -0.140625 0.109375 -0.234375q0.109375 -0.09375 0.28125 -0.09375l0.84375 0l0 3.3125l2.765625 0l0 1.234375l-2.765625 0l0 5.765625q0 0.609375 0.296875 0.90625q0.296875 0.296875 0.765625 0.296875q0.265625 0 0.453125 -0.0625q0.203125 -0.078125 0.34375 -0.15625q0.140625 -0.09375 0.234375 -0.15625q0.109375 -0.078125 0.1875 -0.078125q0.125 0 0.234375 0.15625l0.484375 0.8125q-0.4375 0.40625 -1.0625 0.640625q-0.609375 0.234375 -1.265625 0.234375zm7.8650513 -9.9375q0.859375 0 1.59375 0.296875q0.734375 0.28125 1.265625 0.828125q0.53125 0.546875 0.828125 1.359375q0.296875 0.796875 0.296875 1.828125q0 0.390625 -0.09375 0.53125q-0.078125 0.125 -0.3125 0.125l-6.40625 0q0.015625 0.921875 0.234375 1.59375q0.234375 0.671875 0.625 1.125q0.40625 0.453125 0.953125 0.671875q0.5625 0.21875 1.25 0.21875q0.640625 0 1.09375 -0.140625q0.453125 -0.140625 0.78125 -0.3125q0.34375 -0.171875 0.5625 -0.3125q0.234375 -0.15625 0.390625 -0.15625q0.203125 0 0.328125 0.15625l0.46875 0.625q-0.3125 0.375 -0.75 0.65625q-0.4375 0.28125 -0.9375 0.46875q-0.5 0.171875 -1.03125 0.265625q-0.53125 0.09375 -1.046875 0.09375q-1.0 0 -1.84375 -0.34375q-0.84375 -0.34375 -1.453125 -0.984375q-0.609375 -0.65625 -0.953125 -1.609375q-0.34375 -0.96875 -0.34375 -2.203125q0 -1.015625 0.3125 -1.890625q0.3125 -0.875 0.890625 -1.515625q0.578125 -0.640625 1.40625 -1.0q0.84375 -0.375 1.890625 -0.375zm0.03125 1.25q-1.21875 0 -1.921875 0.71875q-0.703125 0.703125 -0.875 1.953125l5.234375 0q0 -0.59375 -0.171875 -1.078125q-0.15625 -0.484375 -0.46875 -0.84375q-0.3125 -0.359375 -0.765625 -0.546875q-0.453125 -0.203125 -1.03125 -0.203125zm5.932129 8.53125l0 -9.625l0.96875 0q0.265625 0 0.375 0.109375q0.109375 0.09375 0.140625 0.359375l0.125 1.5q0.484375 -1.0 1.203125 -1.5625q0.734375 -0.578125 1.71875 -0.578125q0.390625 0 0.71875 0.09375q0.328125 0.09375 0.59375 0.25l-0.21875 1.265625q-0.0625 0.234375 -0.296875 0.234375q-0.125 0 -0.40625 -0.078125q-0.265625 -0.09375 -0.765625 -0.09375q-0.875 0 -1.46875 0.515625q-0.59375 0.5 -1.0 1.484375l0 6.125l-1.6875 0zm14.580994 0l-0.75 0q-0.25 0 -0.40625 -0.078125q-0.140625 -0.078125 -0.1875 -0.328125l-0.1875 -0.890625q-0.390625 0.34375 -0.75 0.625q-0.359375 0.265625 -0.765625 0.453125q-0.390625 0.1875 -0.84375 0.28125q-0.453125 0.09375 -1.0 0.09375q-0.5625 0 -1.046875 -0.15625q-0.484375 -0.15625 -0.859375 -0.46875q-0.359375 -0.3125 -0.578125 -0.796875q-0.203125 -0.484375 -0.203125 -1.140625q0 -0.5625 0.3125 -1.09375q0.3125 -0.53125 1.0 -0.9375q0.703125 -0.40625 1.828125 -0.671875q1.140625 -0.265625 2.78125 -0.296875l0 -0.75q0 -1.125 -0.484375 -1.6875q-0.484375 -0.578125 -1.421875 -0.578125q-0.609375 0 -1.046875 0.15625q-0.421875 0.15625 -0.734375 0.359375q-0.296875 0.1875 -0.53125 0.34375q-0.21875 0.15625 -0.4375 0.15625q-0.171875 0 -0.296875 -0.09375q-0.125 -0.09375 -0.203125 -0.21875l-0.296875 -0.546875q0.796875 -0.765625 1.71875 -1.140625q0.921875 -0.390625 2.03125 -0.390625q0.8125 0 1.4375 0.265625q0.625 0.265625 1.046875 0.75q0.4375 0.46875 0.65625 1.140625q0.21875 0.671875 0.21875 1.484375l0 6.15625zm-4.390625 -1.03125q0.453125 0 0.8125 -0.09375q0.375 -0.09375 0.703125 -0.25q0.328125 -0.171875 0.625 -0.40625q0.296875 -0.25 0.59375 -0.546875l0 -2.0q-1.171875 0.03125 -2.0 0.1875q-0.8125 0.140625 -1.328125 0.375q-0.5 0.234375 -0.734375 0.5625q-0.234375 0.328125 -0.234375 0.71875q0 0.390625 0.125 0.671875q0.125 0.265625 0.328125 0.4375q0.203125 0.171875 0.484375 0.265625q0.296875 0.078125 0.625 0.078125zm9.693054 1.1875q-1.140625 0 -1.75 -0.640625q-0.609375 -0.640625 -0.609375 -1.828125l0 -5.890625l-1.15625 0q-0.15625 0 -0.265625 -0.09375q-0.09375 -0.09375 -0.09375 -0.28125l0 -0.671875l1.578125 -0.203125l0.390625 -2.96875q0.015625 -0.140625 0.109375 -0.234375q0.109375 -0.09375 0.28125 -0.09375l0.84375 0l0 3.3125l2.765625 0l0 1.234375l-2.765625 0l0 5.765625q0 0.609375 0.296875 0.90625q0.296875 0.296875 0.765625 0.296875q0.265625 0 0.453125 -0.0625q0.203125 -0.078125 0.34375 -0.15625q0.140625 -0.09375 0.234375 -0.15625q0.109375 -0.078125 0.1875 -0.078125q0.125 0 0.234375 0.15625l0.484375 0.8125q-0.4375 0.40625 -1.0625 0.640625q-0.609375 0.234375 -1.265625 0.234375zm7.9431763 -9.9375q1.0625 0 1.90625 0.359375q0.84375 0.34375 1.4375 1.0q0.59375 0.640625 0.90625 1.5625q0.328125 0.90625 0.328125 2.046875q0 1.140625 -0.328125 2.046875q-0.3125 0.90625 -0.90625 1.5625q-0.59375 0.640625 -1.4375 1.0q-0.84375 0.34375 -1.90625 0.34375q-1.046875 0 -1.90625 -0.34375q-0.84375 -0.359375 -1.453125 -1.0q-0.59375 -0.65625 -0.921875 -1.5625q-0.3125 -0.90625 -0.3125 -2.046875q0 -1.140625 0.3125 -2.046875q0.328125 -0.921875 0.921875 -1.5625q0.609375 -0.65625 1.453125 -1.0q0.859375 -0.359375 1.90625 -0.359375zm0 8.59375q1.421875 0 2.125 -0.953125q0.703125 -0.953125 0.703125 -2.671875q0 -1.71875 -0.703125 -2.671875q-0.703125 -0.96875 -2.125 -0.96875q-0.71875 0 -1.25 0.25q-0.53125 0.25 -0.890625 0.71875q-0.359375 0.46875 -0.53125 1.15625q-0.171875 0.671875 -0.171875 1.515625q0 0.859375 0.171875 1.53125q0.171875 0.671875 0.53125 1.140625q0.359375 0.453125 0.890625 0.703125q0.53125 0.25 1.25 0.25zm6.482239 1.1875l0 -9.625l0.96875 0q0.265625 0 0.375 0.109375q0.109375 0.09375 0.140625 0.359375l0.125 1.5q0.484375 -1.0 1.203125 -1.5625q0.734375 -0.578125 1.71875 -0.578125q0.390625 0 0.71875 0.09375q0.328125 0.09375 0.59375 0.25l-0.21875 1.265625q-0.0625 0.234375 -0.296875 0.234375q-0.125 0 -0.40625 -0.078125q-0.265625 -0.09375 -0.765625 -0.09375q-0.875 0 -1.46875 0.515625q-0.59375 0.5 -1.0 1.484375l0 6.125l-1.6875 0zm16.174744 -13.609375l0 1.5l-6.546875 0l0 4.75l5.59375 0l0 1.5l-5.59375 0l0 5.859375l-1.84375 0l0 -13.609375l8.390625 0zm3.3563232 3.984375l0 6.140625q0 1.09375 0.5 1.6875q0.515625 0.59375 1.53125 0.59375q0.734375 0 1.390625 -0.34375q0.65625 -0.359375 1.203125 -0.984375l0 -7.09375l1.703125 0l0 9.625l-1.015625 0q-0.359375 0 -0.453125 -0.34375l-0.125 -1.046875q-0.640625 0.703125 -1.421875 1.125q-0.765625 0.421875 -1.78125 0.421875q-0.78125 0 -1.390625 -0.265625q-0.59375 -0.265625 -1.015625 -0.734375q-0.40625 -0.484375 -0.609375 -1.15625q-0.203125 -0.671875 -0.203125 -1.484375l0 -6.140625l1.6875 0zm8.919739 9.625l0 -9.625l1.0 0q0.359375 0 0.453125 0.359375l0.140625 1.03125q0.625 -0.6875 1.390625 -1.109375q0.78125 -0.4375 1.796875 -0.4375q0.796875 0 1.390625 0.265625q0.609375 0.265625 1.015625 0.75q0.40625 0.46875 0.609375 1.15625q0.203125 0.671875 0.203125 1.484375l0 6.125l-1.6875 0l0 -6.125q0 -1.09375 -0.5 -1.6875q-0.5 -0.609375 -1.515625 -0.609375q-0.75 0 -1.40625 0.359375q-0.65625 0.359375 -1.203125 0.96875l0 7.09375l-1.6875 0zm16.935364 -7.90625q-0.078125 0.09375 -0.15625 0.15625q-0.078125 0.0625 -0.21875 0.0625q-0.140625 0 -0.3125 -0.125q-0.15625 -0.125 -0.421875 -0.265625q-0.25 -0.140625 -0.625 -0.25q-0.359375 -0.125 -0.890625 -0.125q-0.703125 0 -1.25 0.25q-0.53125 0.25 -0.90625 0.734375q-0.359375 0.46875 -0.546875 1.140625q-0.1875 0.671875 -0.1875 1.515625q0 0.875 0.203125 1.5625q0.203125 0.671875 0.5625 1.140625q0.359375 0.453125 0.875 0.703125q0.515625 0.234375 1.171875 0.234375q0.609375 0 1.0 -0.140625q0.40625 -0.15625 0.671875 -0.328125q0.265625 -0.1875 0.4375 -0.328125q0.171875 -0.15625 0.34375 -0.15625q0.21875 0 0.328125 0.15625l0.46875 0.625q-0.625 0.765625 -1.5625 1.125q-0.9375 0.359375 -1.984375 0.359375q-0.90625 0 -1.6875 -0.328125q-0.765625 -0.34375 -1.34375 -0.96875q-0.5625 -0.640625 -0.890625 -1.5625q-0.328125 -0.921875 -0.328125 -2.09375q0 -1.078125 0.296875 -1.984375q0.296875 -0.921875 0.875 -1.578125q0.578125 -0.65625 1.421875 -1.03125q0.84375 -0.375 1.9375 -0.375q1.0 0 1.78125 0.328125q0.78125 0.328125 1.375 0.9375l-0.4375 0.609375zm5.0562134 8.0625q-1.140625 0 -1.75 -0.640625q-0.609375 -0.640625 -0.609375 -1.828125l0 -5.890625l-1.15625 0q-0.15625 0 -0.265625 -0.09375q-0.09375 -0.09375 -0.09375 -0.28125l0 -0.671875l1.578125 -0.203125l0.390625 -2.96875q0.015625 -0.140625 0.109375 -0.234375q0.109375 -0.09375 0.28125 -0.09375l0.84375 0l0 3.3125l2.765625 0l0 1.234375l-2.765625 0l0 5.765625q0 0.609375 0.296875 0.90625q0.296875 0.296875 0.765625 0.296875q0.265625 0 0.453125 -0.0625q0.203125 -0.078125 0.34375 -0.15625q0.140625 -0.09375 0.234375 -0.15625q0.109375 -0.078125 0.1875 -0.078125q0.125 0 0.234375 0.15625l0.484375 0.8125q-0.4375 0.40625 -1.0625 0.640625q-0.609375 0.234375 -1.265625 0.234375zm5.9275513 -9.78125l0 9.625l-1.6875 0l0 -9.625l1.6875 0zm0.375 -3.015625q0 0.25 -0.09375 0.46875q-0.09375 0.203125 -0.265625 0.375q-0.171875 0.15625 -0.390625 0.25q-0.21875 0.09375 -0.453125 0.09375q-0.25 0 -0.46875 -0.09375q-0.21875 -0.09375 -0.390625 -0.25q-0.15625 -0.171875 -0.25 -0.375q-0.09375 -0.21875 -0.09375 -0.46875q0 -0.25 0.09375 -0.46875q0.09375 -0.234375 0.25 -0.390625q0.171875 -0.171875 0.390625 -0.265625q0.21875 -0.09375 0.46875 -0.09375q0.234375 0 0.453125 0.09375q0.21875 0.09375 0.390625 0.265625q0.171875 0.15625 0.265625 0.390625q0.09375 0.21875 0.09375 0.46875zm6.416626 2.859375q1.0625 0 1.90625 0.359375q0.84375 0.34375 1.4375 1.0q0.59375 0.640625 0.90625 1.5625q0.328125 0.90625 0.328125 2.046875q0 1.140625 -0.328125 2.046875q-0.3125 0.90625 -0.90625 1.5625q-0.59375 0.640625 -1.4375 1.0q-0.84375 0.34375 -1.90625 0.34375q-1.046875 0 -1.90625 -0.34375q-0.84375 -0.359375 -1.453125 -1.0q-0.59375 -0.65625 -0.921875 -1.5625q-0.3125 -0.90625 -0.3125 -2.046875q0 -1.140625 0.3125 -2.046875q0.328125 -0.921875 0.921875 -1.5625q0.609375 -0.65625 1.453125 -1.0q0.859375 -0.359375 1.90625 -0.359375zm0 8.59375q1.421875 0 2.125 -0.953125q0.703125 -0.953125 0.703125 -2.671875q0 -1.71875 -0.703125 -2.671875q-0.703125 -0.96875 -2.125 -0.96875q-0.71875 0 -1.25 0.25q-0.53125 0.25 -0.890625 0.71875q-0.359375 0.46875 -0.53125 1.15625q-0.171875 0.671875 -0.171875 1.515625q0 0.859375 0.171875 1.53125q0.171875 0.671875 0.53125 1.140625q0.359375 0.453125 0.890625 0.703125q0.53125 0.25 1.25 0.25zm6.482239 1.1875l0 -9.625l1.0 0q0.359375 0 0.453125 0.359375l0.140625 1.03125q0.625 -0.6875 1.390625 -1.109375q0.78125 -0.4375 1.796875 -0.4375q0.796875 0 1.390625 0.265625q0.609375 0.265625 1.015625 0.75q0.40625 0.46875 0.609375 1.15625q0.203125 0.671875 0.203125 1.484375l0 6.125l-1.6875 0l0 -6.125q0 -1.09375 -0.5 -1.6875q-0.5 -0.609375 -1.515625 -0.609375q-0.75 0 -1.40625 0.359375q-0.65625 0.359375 -1.203125 0.96875l0 7.09375l-1.6875 0z" fill-rule="nonzero"></path><path fill="#000000" fill-opacity="0.0" d="m423.86227 399.01443l184.94485 0" fill-rule="evenodd"></path><path stroke="#000000" stroke-width="3.0" stroke-linejoin="round" stroke-linecap="butt" d="m423.86227 399.01443l166.94492 0" fill-rule="evenodd"></path><path fill="#000000" stroke="#000000" stroke-width="3.0" stroke-linecap="butt" d="m590.8072 403.96964l13.614258 -4.9552l-13.614258 -4.9552z" fill-rule="evenodd"></path><path fill="#000000" fill-opacity="0.0" d="m473.50394 377.17322l105.19687 0l0 43.68506l-105.19687 0z" fill-rule="evenodd"></path><path fill="#ffffff" d="m492.5211 386.64963l67.16257 0l0 22.387512l-67.16257 0l0 -22.387512z" fill-rule="nonzero"></path><path fill="#000000" d="m494.38046 394.2651l1.34375 0l0.140625 1.375q0.578125 -0.75 1.453125 -1.15625q0.890625 -0.421875 1.78125 -0.421875q2.765625 0 2.765625 2.90625l0 7.125l-1.5625 0l0 -5.96875q0 -1.109375 -0.125 -1.6875q-0.125 -0.578125 -0.484375 -0.84375q-0.34375 -0.28125 -1.078125 -0.28125q-0.796875 0 -1.515625 0.484375q-0.703125 0.484375 -1.140625 1.15625l0 7.140625l-1.578125 0l0 -9.828125zm12.771881 6.96875q0 0.953125 0.390625 1.390625q0.40625 0.4375 1.265625 0.4375q0.78125 0 1.5 -0.4375q0.734375 -0.453125 1.171875 -1.125l0 -7.234375l1.5625 0l0 9.828125l-1.34375 0l-0.125 -1.328125q-0.578125 0.734375 -1.4375 1.140625q-0.84375 0.390625 -1.71875 0.390625q-1.40625 0 -2.125 -0.734375q-0.71875 -0.75 -0.71875 -2.15625l0 -7.140625l1.578125 0l0 6.96875zm16.100037 -7.171875q0.828125 0 1.359375 0.59375q0.546875 0.578125 0.546875 2.125l0 7.3125l-1.4375 0l0 -7.046875q0 -1.03125 -0.140625 -1.390625q-0.125 -0.375 -0.625 -0.375q-0.953125 0 -1.71875 1.1875l0 7.625l-1.453125 0l0 -7.046875q0 -1.03125 -0.140625 -1.390625q-0.125 -0.375 -0.625 -0.375q-0.953125 0 -1.71875 1.1875l0 7.625l-1.4375 0l0 -9.828125l1.21875 0l0.109375 1.15625q0.4375 -0.65625 0.9375 -1.0q0.5 -0.359375 1.1875 -0.359375q1.375 0 1.765625 1.296875q0.453125 -0.625 0.953125 -0.953125q0.5 -0.34375 1.21875 -0.34375zm6.2874756 1.484375q1.140625 -1.484375 2.8125 -1.484375q1.890625 0 2.78125 1.34375q0.890625 1.34375 0.890625 3.765625q0 2.3125 -1.03125 3.71875q-1.015625 1.40625 -2.859375 1.40625q-1.703125 0 -2.671875 -1.234375l-0.109375 1.03125l-1.390625 0l0 -13.78125l1.578125 -0.1875l0 5.421875zm2.234375 7.484375q1.234375 0 1.890625 -0.96875q0.671875 -0.96875 0.671875 -2.890625q0 -1.90625 -0.59375 -2.875q-0.59375 -0.96875 -1.75 -0.96875q-0.734375 0 -1.359375 0.453125q-0.625 0.4375 -1.09375 1.109375l0 4.875q0.390625 0.59375 0.96875 0.9375q0.578125 0.328125 1.265625 0.328125zm8.631287 -3.296875q0.0625 1.609375 0.84375 2.4375q0.796875 0.828125 2.015625 0.828125q0.734375 0 1.328125 -0.21875q0.609375 -0.21875 1.296875 -0.671875l0.734375 1.046875q-0.6875 0.546875 -1.578125 0.84375q-0.890625 0.296875 -1.78125 0.296875q-2.125 0 -3.3125 -1.390625q-1.1875 -1.390625 -1.1875 -3.71875q0 -1.46875 0.515625 -2.640625q0.53125 -1.171875 1.5 -1.828125q0.96875 -0.65625 2.265625 -0.65625q1.859375 0 2.921875 1.296875q1.078125 1.296875 1.078125 3.53125q0 0.421875 -0.03125 0.84375l-6.609375 0zm2.65625 -4.390625q-1.140625 0 -1.859375 0.8125q-0.703125 0.8125 -0.796875 2.375l5.125 0q-0.03125 -1.546875 -0.6875 -2.359375q-0.640625 -0.828125 -1.78125 -0.828125zm13.928101 -1.28125q0.609375 0 1.390625 0.203125l-0.234375 3.328125l-1.265625 0l0 -2.09375l-0.09375 0q-2.265625 0 -3.21875 3.234375l0 4.140625l2.0 0l0 1.21875l-5.125 0l0 -1.21875l1.546875 0l0 -7.40625l-1.546875 0l0 -1.203125l2.734375 0l0.296875 2.328125q0.59375 -1.265625 1.421875 -1.890625q0.828125 -0.640625 2.09375 -0.640625z" fill-rule="nonzero"></path><path fill="#000000" fill-opacity="0.0" d="m473.50415 146.40945l105.19684 0l0 48.59842l-105.19684 0z" fill-rule="evenodd"></path><path fill="#ffffff" d="m492.5213 155.88585l67.16254 0l0 22.387512l-67.16254 0l0 -22.387512z" fill-rule="nonzero"></path><path fill="#000000" d="m494.38068 163.50133l1.34375 0l0.140625 1.375q0.578125 -0.75 1.453125 -1.15625q0.890625 -0.421875 1.78125 -0.421875q2.765625 0 2.765625 2.90625l0 7.125l-1.5625 0l0 -5.96875q0 -1.109375 -0.125 -1.6875q-0.125 -0.578125 -0.484375 -0.84375q-0.34375 -0.28125 -1.078125 -0.28125q-0.796875 0 -1.515625 0.484375q-0.703125 0.484375 -1.140625 1.15625l0 7.140625l-1.578125 0l0 -9.828125zm12.771881 6.96875q0 0.953125 0.390625 1.390625q0.40625 0.4375 1.265625 0.4375q0.78125 0 1.5 -0.4375q0.734375 -0.453125 1.171875 -1.125l0 -7.234375l1.5625305 0l0 9.828125l-1.3437805 0l-0.125 -1.328125q-0.578125 0.734375 -1.4375 1.140625q-0.84375 0.390625 -1.71875 0.390625q-1.40625 0 -2.125 -0.734375q-0.71875 -0.75 -0.71875 -2.15625l0 -7.140625l1.578125 0l0 6.96875zm16.100006 -7.171875q0.828125 0 1.359375 0.59375q0.546875 0.578125 0.546875 2.125l0 7.3125l-1.4375 0l0 -7.046875q0 -1.03125 -0.140625 -1.390625q-0.125 -0.375 -0.625 -0.375q-0.953125 0 -1.71875 1.1875l0 7.625l-1.453125 0l0 -7.046875q0 -1.03125 -0.140625 -1.390625q-0.125 -0.375 -0.625 -0.375q-0.953125 0 -1.71875 1.1875l0 7.625l-1.4375 0l0 -9.828125l1.21875 0l0.109375 1.15625q0.4375 -0.65625 0.9375 -1.0q0.5 -0.359375 1.1875 -0.359375q1.375 0 1.765625 1.296875q0.453125 -0.625 0.953125 -0.953125q0.5 -0.34375 1.21875 -0.34375zm6.2875366 1.484375q1.140625 -1.484375 2.8125 -1.484375q1.890625 0 2.78125 1.34375q0.890625 1.34375 0.890625 3.765625q0 2.3125 -1.03125 3.71875q-1.015625 1.40625 -2.859375 1.40625q-1.703125 0 -2.671875 -1.234375l-0.109375 1.03125l-1.390625 0l0 -13.78125l1.578125 -0.1875l0 5.421875zm2.234375 7.484375q1.234375 0 1.890625 -0.96875q0.671875 -0.96875 0.671875 -2.890625q0 -1.90625 -0.59375 -2.875q-0.59375 -0.96875 -1.75 -0.96875q-0.734375 0 -1.359375 0.453125q-0.625 0.4375 -1.09375 1.109375l0 4.875q0.390625 0.59375 0.96875 0.9375q0.578125 0.328125 1.265625 0.328125zm8.631226 -3.296875q0.0625 1.609375 0.84375 2.4375q0.796875 0.828125 2.015625 0.828125q0.734375 0 1.328125 -0.21875q0.609375 -0.21875 1.296875 -0.671875l0.734375 1.046875q-0.6875 0.546875 -1.578125 0.84375q-0.890625 0.296875 -1.78125 0.296875q-2.125 0 -3.3125 -1.390625q-1.1875 -1.390625 -1.1875 -3.71875q0 -1.46875 0.515625 -2.640625q0.53125 -1.171875 1.5 -1.828125q0.96875 -0.65625 2.265625 -0.65625q1.859375 0 2.921875 1.296875q1.078125 1.296875 1.078125 3.53125q0 0.421875 -0.03125 0.84375l-6.609375 0zm2.65625 -4.390625q-1.140625 0 -1.859375 0.8125q-0.703125 0.8125 -0.796875 2.375l5.125 0q-0.03125 -1.546875 -0.6875 -2.359375q-0.640625 -0.828125 -1.78125 -0.828125zm13.928162 -1.28125q0.609375 0 1.390625 0.203125l-0.234375 3.328125l-1.265625 0l0 -2.09375l-0.09375 0q-2.265625 0 -3.21875 3.234375l0 4.140625l2.0 0l0 1.21875l-5.125 0l0 -1.21875l1.546875 0l0 -7.40625l-1.546875 0l0 -1.203125l2.734375 0l0.296875 2.328125q0.59375 -1.265625 1.421875 -1.890625q0.828125 -0.640625 2.09375 -0.640625z" fill-rule="nonzero"></path><path fill="#000000" fill-opacity="0.0" d="m784.97284 661.55774l0 47.24408" fill-rule="evenodd"></path><path stroke="#cc0000" stroke-width="3.0" stroke-linejoin="round" stroke-linecap="butt" d="m784.97284 661.55774l0 29.24408" fill-rule="evenodd"></path><path fill="#cc0000" stroke="#cc0000" stroke-width="3.0" stroke-linecap="butt" d="m780.01764 690.8018l4.9552 13.614319l4.9552 -13.614319z" fill-rule="evenodd"></path><path fill="#000000" fill-opacity="0.0" d="m784.97284 433.25198c0 39.957886 -197.5747 61.649475 -372.0156 79.9158c-174.4409 18.266296 -325.74792 33.1073 -372.01566 57.081482c-46.26773 23.974121 12.503822 57.08142 25.00764 57.08142" fill-rule="evenodd"></path><path stroke="#434343" stroke-width="3.0" stroke-linejoin="round" stroke-linecap="butt" stroke-dasharray="12.0,9.0,3.0,9.0" d="m784.97284 433.25198c0 39.957855 -197.5747 61.649475 -372.01562 79.9158c-174.44087 18.266296 -325.7479 33.1073 -372.01562 57.08142c-23.133865 11.987122 -20.007912 26.257507 -9.535513 37.531067c2.6181011 2.8184204 5.6953526 5.449524 8.936235 7.810791c1.6204453 1.1806641 3.2817955 2.2938843 4.947113 3.3292847c0.83265686 0.5177002 1.6663094 1.0160522 2.4963303 1.4935913c0.41501617 0.23876953 0.82912064 0.47235107 1.2417412 0.70062256l0.024272919 0.013244629" fill-rule="evenodd"></path><path fill="#434343" stroke="#434343" stroke-width="3.0" stroke-linecap="butt" d="m47.344196 625.77954l14.487976 0.039855957l-11.072811 -9.343262z" fill-rule="evenodd"></path><path fill="#efefef" d="m608.7996 593.0853l352.3465 0l0 68.47241l-352.3465 0z" fill-rule="evenodd"></path><path stroke="#000000" stroke-width="1.0" stroke-linejoin="round" stroke-linecap="butt" d="m608.7996 593.0853l352.3465 0l0 68.47241l-352.3465 0z" fill-rule="evenodd"></path><path fill="#000000" d="m720.3204 624.6165l0 9.625l-1.6875 0l0 -9.625l1.6875 0zm0.375 -3.015625q0 0.25 -0.09375 0.46875q-0.09375 0.203125 -0.265625 0.375q-0.171875 0.15625 -0.390625 0.25q-0.21875 0.09375 -0.453125 0.09375q-0.25 0 -0.46875 -0.09375q-0.21875 -0.09375 -0.390625 -0.25q-0.15625 -0.171875 -0.25 -0.375q-0.09375 -0.21875 -0.09375 -0.46875q0 -0.25 0.09375 -0.46875q0.09375 -0.234375 0.25 -0.390625q0.171875 -0.171875 0.390625 -0.265625q0.21875 -0.09375 0.46875 -0.09375q0.234375 0 0.453125 0.09375q0.21875 0.09375 0.390625 0.265625q0.171875 0.15625 0.265625 0.390625q0.09375 0.21875 0.09375 0.46875zm5.432251 12.796875q-1.140625 0 -1.75 -0.640625q-0.609375 -0.640625 -0.609375 -1.828125l0 -5.890625l-1.15625 0q-0.15625 0 -0.265625 -0.09375q-0.09375 -0.09375 -0.09375 -0.28125l0 -0.671875l1.578125 -0.203125l0.390625 -2.96875q0.015625 -0.140625 0.109375 -0.234375q0.109375 -0.09375 0.28125 -0.09375l0.84375 0l0 3.3125l2.765625 0l0 1.234375l-2.765625 0l0 5.765625q0 0.609375 0.296875 0.90625q0.296875 0.296875 0.765625 0.296875q0.265625 0 0.453125 -0.0625q0.203125 -0.078125 0.34375 -0.15625q0.140625 -0.09375 0.234375 -0.15625q0.109375 -0.078125 0.1875 -0.078125q0.125 0 0.234375 0.15625l0.484375 0.8125q-0.4375 0.40625 -1.0625 0.640625q-0.609375 0.234375 -1.265625 0.234375zm7.8650513 -9.9375q0.859375 0 1.59375 0.296875q0.734375 0.28125 1.265625 0.828125q0.53125 0.546875 0.828125 1.359375q0.296875 0.796875 0.296875 1.828125q0 0.390625 -0.09375 0.53125q-0.078125 0.125 -0.3125 0.125l-6.40625 0q0.015625 0.921875 0.234375 1.59375q0.234375 0.671875 0.625 1.125q0.40625 0.453125 0.953125 0.671875q0.5625 0.21875 1.25 0.21875q0.640625 0 1.09375 -0.140625q0.453125 -0.140625 0.78125 -0.3125q0.34375 -0.171875 0.5625 -0.3125q0.234375 -0.15625 0.390625 -0.15625q0.203125 0 0.328125 0.15625l0.46875 0.625q-0.3125 0.375 -0.75 0.65625q-0.4375 0.28125 -0.9375 0.46875q-0.5 0.171875 -1.03125 0.265625q-0.53125 0.09375 -1.046875 0.09375q-1.0 0 -1.84375 -0.34375q-0.84375 -0.34375 -1.453125 -0.984375q-0.609375 -0.65625 -0.953125 -1.609375q-0.34375 -0.96875 -0.34375 -2.203125q0 -1.015625 0.3125 -1.890625q0.3125 -0.875 0.890625 -1.515625q0.578125 -0.640625 1.40625 -1.0q0.84375 -0.375 1.890625 -0.375zm0.03125 1.25q-1.21875 0 -1.921875 0.71875q-0.703125 0.703125 -0.875 1.953125l5.234375 0q0 -0.59375 -0.171875 -1.078125q-0.15625 -0.484375 -0.46875 -0.84375q-0.3125 -0.359375 -0.765625 -0.546875q-0.453125 -0.203125 -1.03125 -0.203125zm5.932129 8.53125l0 -9.625l0.96875 0q0.265625 0 0.375 0.109375q0.109375 0.09375 0.140625 0.359375l0.125 1.5q0.484375 -1.0 1.203125 -1.5625q0.734375 -0.578125 1.71875 -0.578125q0.390625 0 0.71875 0.09375q0.328125 0.09375 0.59375 0.25l-0.21875 1.265625q-0.0625 0.234375 -0.296875 0.234375q-0.125 0 -0.40625 -0.078125q-0.265625 -0.09375 -0.765625 -0.09375q-0.875 0 -1.46875 0.515625q-0.59375 0.5 -1.0 1.484375l0 6.125l-1.6875 0zm14.580994 0l-0.75 0q-0.25 0 -0.40625 -0.078125q-0.140625 -0.078125 -0.1875 -0.328125l-0.1875 -0.890625q-0.390625 0.34375 -0.75 0.625q-0.359375 0.265625 -0.765625 0.453125q-0.390625 0.1875 -0.84375 0.28125q-0.453125 0.09375 -1.0 0.09375q-0.5625 0 -1.046875 -0.15625q-0.484375 -0.15625 -0.859375 -0.46875q-0.359375 -0.3125 -0.578125 -0.796875q-0.203125 -0.484375 -0.203125 -1.140625q0 -0.5625 0.3125 -1.09375q0.3125 -0.53125 1.0 -0.9375q0.703125 -0.40625 1.828125 -0.671875q1.140625 -0.265625 2.78125 -0.296875l0 -0.75q0 -1.125 -0.484375 -1.6875q-0.484375 -0.578125 -1.421875 -0.578125q-0.609375 0 -1.046875 0.15625q-0.421875 0.15625 -0.734375 0.359375q-0.296875 0.1875 -0.53125 0.34375q-0.21875 0.15625 -0.4375 0.15625q-0.171875 0 -0.296875 -0.09375q-0.125 -0.09375 -0.203125 -0.21875l-0.296875 -0.546875q0.796875 -0.765625 1.71875 -1.140625q0.921875 -0.390625 2.03125 -0.390625q0.8125 0 1.4375 0.265625q0.625 0.265625 1.046875 0.75q0.4375 0.46875 0.65625 1.140625q0.21875 0.671875 0.21875 1.484375l0 6.15625zm-4.390625 -1.03125q0.453125 0 0.8125 -0.09375q0.375 -0.09375 0.703125 -0.25q0.328125 -0.171875 0.625 -0.40625q0.296875 -0.25 0.59375 -0.546875l0 -2.0q-1.171875 0.03125 -2.0 0.1875q-0.8125 0.140625 -1.328125 0.375q-0.5 0.234375 -0.734375 0.5625q-0.234375 0.328125 -0.234375 0.71875q0 0.390625 0.125 0.671875q0.125 0.265625 0.328125 0.4375q0.203125 0.171875 0.484375 0.265625q0.296875 0.078125 0.625 0.078125zm9.693054 1.1875q-1.140625 0 -1.75 -0.640625q-0.609375 -0.640625 -0.609375 -1.828125l0 -5.890625l-1.15625 0q-0.15625 0 -0.265625 -0.09375q-0.09375 -0.09375 -0.09375 -0.28125l0 -0.671875l1.578125 -0.203125l0.390625 -2.96875q0.015625 -0.140625 0.109375 -0.234375q0.109375 -0.09375 0.28125 -0.09375l0.84375 0l0 3.3125l2.765625 0l0 1.234375l-2.765625 0l0 5.765625q0 0.609375 0.296875 0.90625q0.296875 0.296875 0.765625 0.296875q0.265625 0 0.453125 -0.0625q0.203125 -0.078125 0.34375 -0.15625q0.140625 -0.09375 0.234375 -0.15625q0.109375 -0.078125 0.1875 -0.078125q0.125 0 0.234375 0.15625l0.484375 0.8125q-0.4375 0.40625 -1.0625 0.640625q-0.609375 0.234375 -1.265625 0.234375zm7.9431763 -9.9375q1.0625 0 1.90625 0.359375q0.84375 0.34375 1.4375 1.0q0.59375 0.640625 0.90625 1.5625q0.328125 0.90625 0.328125 2.046875q0 1.140625 -0.328125 2.046875q-0.3125 0.90625 -0.90625 1.5625q-0.59375 0.640625 -1.4375 1.0q-0.84375 0.34375 -1.90625 0.34375q-1.046875 0 -1.90625 -0.34375q-0.84375 -0.359375 -1.453125 -1.0q-0.59375 -0.65625 -0.921875 -1.5625q-0.3125 -0.90625 -0.3125 -2.046875q0 -1.140625 0.3125 -2.046875q0.328125 -0.921875 0.921875 -1.5625q0.609375 -0.65625 1.453125 -1.0q0.859375 -0.359375 1.90625 -0.359375zm0 8.59375q1.421875 0 2.125 -0.953125q0.703125 -0.953125 0.703125 -2.671875q0 -1.71875 -0.703125 -2.671875q-0.703125 -0.96875 -2.125 -0.96875q-0.71875 0 -1.25 0.25q-0.53125 0.25 -0.890625 0.71875q-0.359375 0.46875 -0.53125 1.15625q-0.171875 0.671875 -0.171875 1.515625q0 0.859375 0.171875 1.53125q0.171875 0.671875 0.53125 1.140625q0.359375 0.453125 0.890625 0.703125q0.53125 0.25 1.25 0.25zm6.482239 1.1875l0 -9.625l0.96875 0q0.265625 0 0.375 0.109375q0.109375 0.09375 0.140625 0.359375l0.125 1.5q0.484375 -1.0 1.203125 -1.5625q0.734375 -0.578125 1.71875 -0.578125q0.390625 0 0.71875 0.09375q0.328125 0.09375 0.59375 0.25l-0.21875 1.265625q-0.0625 0.234375 -0.296875 0.234375q-0.125 0 -0.40625 -0.078125q-0.265625 -0.09375 -0.765625 -0.09375q-0.875 0 -1.46875 0.515625q-0.59375 0.5 -1.0 1.484375l0 6.125l-1.6875 0zm16.174744 -13.609375l0 1.5l-6.546875 0l0 4.75l5.59375 0l0 1.5l-5.59375 0l0 5.859375l-1.84375 0l0 -13.609375l8.390625 0zm3.3563232 3.984375l0 6.140625q0 1.09375 0.5 1.6875q0.515625 0.59375 1.53125 0.59375q0.734375 0 1.390625 -0.34375q0.65625 -0.359375 1.203125 -0.984375l0 -7.09375l1.703125 0l0 9.625l-1.015625 0q-0.359375 0 -0.453125 -0.34375l-0.125 -1.046875q-0.640625 0.703125 -1.421875 1.125q-0.765625 0.421875 -1.78125 0.421875q-0.78125 0 -1.390625 -0.265625q-0.59375 -0.265625 -1.015625 -0.734375q-0.40625 -0.484375 -0.609375 -1.15625q-0.203125 -0.671875 -0.203125 -1.484375l0 -6.140625l1.6875 0zm8.919739 9.625l0 -9.625l1.0 0q0.359375 0 0.453125 0.359375l0.140625 1.03125q0.625 -0.6875 1.390625 -1.109375q0.78125 -0.4375 1.796875 -0.4375q0.796875 0 1.390625 0.265625q0.609375 0.265625 1.015625 0.75q0.40625 0.46875 0.609375 1.15625q0.203125 0.671875 0.203125 1.484375l0 6.125l-1.6875 0l0 -6.125q0 -1.09375 -0.5 -1.6875q-0.5 -0.609375 -1.515625 -0.609375q-0.75 0 -1.40625 0.359375q-0.65625 0.359375 -1.203125 0.96875l0 7.09375l-1.6875 0zm16.935364 -7.90625q-0.078125 0.09375 -0.15625 0.15625q-0.078125 0.0625 -0.21875 0.0625q-0.140625 0 -0.3125 -0.125q-0.15625 -0.125 -0.421875 -0.265625q-0.25 -0.140625 -0.625 -0.25q-0.359375 -0.125 -0.890625 -0.125q-0.703125 0 -1.25 0.25q-0.53125 0.25 -0.90625 0.734375q-0.359375 0.46875 -0.546875 1.140625q-0.1875 0.671875 -0.1875 1.515625q0 0.875 0.203125 1.5625q0.203125 0.671875 0.5625 1.140625q0.359375 0.453125 0.875 0.703125q0.515625 0.234375 1.171875 0.234375q0.609375 0 1.0 -0.140625q0.40625 -0.15625 0.671875 -0.328125q0.265625 -0.1875 0.4375 -0.328125q0.171875 -0.15625 0.34375 -0.15625q0.21875 0 0.328125 0.15625l0.46875 0.625q-0.625 0.765625 -1.5625 1.125q-0.9375 0.359375 -1.984375 0.359375q-0.90625 0 -1.6875 -0.328125q-0.765625 -0.34375 -1.34375 -0.96875q-0.5625 -0.640625 -0.890625 -1.5625q-0.328125 -0.921875 -0.328125 -2.09375q0 -1.078125 0.296875 -1.984375q0.296875 -0.921875 0.875 -1.578125q0.578125 -0.65625 1.421875 -1.03125q0.84375 -0.375 1.9375 -0.375q1.0 0 1.78125 0.328125q0.78125 0.328125 1.375 0.9375l-0.4375 0.609375zm5.0562134 8.0625q-1.140625 0 -1.75 -0.640625q-0.609375 -0.640625 -0.609375 -1.828125l0 -5.890625l-1.15625 0q-0.15625 0 -0.265625 -0.09375q-0.09375 -0.09375 -0.09375 -0.28125l0 -0.671875l1.578125 -0.203125l0.390625 -2.96875q0.015625 -0.140625 0.109375 -0.234375q0.109375 -0.09375 0.28125 -0.09375l0.84375 0l0 3.3125l2.765625 0l0 1.234375l-2.765625 0l0 5.765625q0 0.609375 0.296875 0.90625q0.296875 0.296875 0.765625 0.296875q0.265625 0 0.453125 -0.0625q0.203125 -0.078125 0.34375 -0.15625q0.140625 -0.09375 0.234375 -0.15625q0.109375 -0.078125 0.1875 -0.078125q0.125 0 0.234375 0.15625l0.484375 0.8125q-0.4375 0.40625 -1.0625 0.640625q-0.609375 0.234375 -1.265625 0.234375zm5.9275513 -9.78125l0 9.625l-1.6875 0l0 -9.625l1.6875 0zm0.375 -3.015625q0 0.25 -0.09375 0.46875q-0.09375 0.203125 -0.265625 0.375q-0.171875 0.15625 -0.390625 0.25q-0.21875 0.09375 -0.453125 0.09375q-0.25 0 -0.46875 -0.09375q-0.21875 -0.09375 -0.390625 -0.25q-0.15625 -0.171875 -0.25 -0.375q-0.09375 -0.21875 -0.09375 -0.46875q0 -0.25 0.09375 -0.46875q0.09375 -0.234375 0.25 -0.390625q0.171875 -0.171875 0.390625 -0.265625q0.21875 -0.09375 0.46875 -0.09375q0.234375 0 0.453125 0.09375q0.21875 0.09375 0.390625 0.265625q0.171875 0.15625 0.265625 0.390625q0.09375 0.21875 0.09375 0.46875zm6.416626 2.859375q1.0625 0 1.90625 0.359375q0.84375 0.34375 1.4375 1.0q0.59375 0.640625 0.90625 1.5625q0.328125 0.90625 0.328125 2.046875q0 1.140625 -0.328125 2.046875q-0.3125 0.90625 -0.90625 1.5625q-0.59375 0.640625 -1.4375 1.0q-0.84375 0.34375 -1.90625 0.34375q-1.046875 0 -1.90625 -0.34375q-0.84375 -0.359375 -1.453125 -1.0q-0.59375 -0.65625 -0.921875 -1.5625q-0.3125 -0.90625 -0.3125 -2.046875q0 -1.140625 0.3125 -2.046875q0.328125 -0.921875 0.921875 -1.5625q0.609375 -0.65625 1.453125 -1.0q0.859375 -0.359375 1.90625 -0.359375zm0 8.59375q1.421875 0 2.125 -0.953125q0.703125 -0.953125 0.703125 -2.671875q0 -1.71875 -0.703125 -2.671875q-0.703125 -0.96875 -2.125 -0.96875q-0.71875 0 -1.25 0.25q-0.53125 0.25 -0.890625 0.71875q-0.359375 0.46875 -0.53125 1.15625q-0.171875 0.671875 -0.171875 1.515625q0 0.859375 0.171875 1.53125q0.171875 0.671875 0.53125 1.140625q0.359375 0.453125 0.890625 0.703125q0.53125 0.25 1.25 0.25zm6.482239 1.1875l0 -9.625l1.0 0q0.359375 0 0.453125 0.359375l0.140625 1.03125q0.625 -0.6875 1.390625 -1.109375q0.78125 -0.4375 1.796875 -0.4375q0.796875 0 1.390625 0.265625q0.609375 0.265625 1.015625 0.75q0.40625 0.46875 0.609375 1.15625q0.203125 0.671875 0.203125 1.484375l0 6.125l-1.6875 0l0 -6.125q0 -1.09375 -0.5 -1.6875q-0.5 -0.609375 -1.515625 -0.609375q-0.75 0 -1.40625 0.359375q-0.65625 0.359375 -1.203125 0.96875l0 7.09375l-1.6875 0z" fill-rule="nonzero"></path><path fill="#000000" fill-opacity="0.0" d="m423.86334 627.32153l184.94489 0" fill-rule="evenodd"></path><path stroke="#000000" stroke-width="3.0" stroke-linejoin="round" stroke-linecap="butt" d="m423.86334 627.32153l166.94489 0" fill-rule="evenodd"></path><path fill="#000000" stroke="#000000" stroke-width="3.0" stroke-linecap="butt" d="m590.8082 632.27673l13.614319 -4.9552l-13.614319 -4.9552z" fill-rule="evenodd"></path><path fill="#000000" fill-opacity="0.0" d="m475.11023 603.0236l101.98425 0l0 43.68506l-101.98425 0z" fill-rule="evenodd"></path><path fill="#ffffff" d="m492.5211 612.5l67.16257 0l0 22.387512l-67.16257 0l0 -22.387512z" fill-rule="nonzero"></path><path fill="#000000" d="m494.38046 620.1155l1.34375 0l0.140625 1.375q0.578125 -0.75 1.453125 -1.15625q0.890625 -0.421875 1.78125 -0.421875q2.765625 0 2.765625 2.90625l0 7.125l-1.5625 0l0 -5.96875q0 -1.109375 -0.125 -1.6875q-0.125 -0.578125 -0.484375 -0.84375q-0.34375 -0.28125 -1.078125 -0.28125q-0.796875 0 -1.515625 0.484375q-0.703125 0.484375 -1.140625 1.15625l0 7.140625l-1.578125 0l0 -9.828125zm12.771881 6.96875q0 0.953125 0.390625 1.390625q0.40625 0.4375 1.265625 0.4375q0.78125 0 1.5 -0.4375q0.734375 -0.453125 1.171875 -1.125l0 -7.234375l1.5625 0l0 9.828125l-1.34375 0l-0.125 -1.328125q-0.578125 0.734375 -1.4375 1.140625q-0.84375 0.390625 -1.71875 0.390625q-1.40625 0 -2.125 -0.734375q-0.71875 -0.75 -0.71875 -2.15625l0 -7.140625l1.578125 0l0 6.96875zm16.100037 -7.171875q0.828125 0 1.359375 0.59375q0.546875 0.578125 0.546875 2.125l0 7.3125l-1.4375 0l0 -7.046875q0 -1.03125 -0.140625 -1.390625q-0.125 -0.375 -0.625 -0.375q-0.953125 0 -1.71875 1.1875l0 7.625l-1.453125 0l0 -7.046875q0 -1.03125 -0.140625 -1.390625q-0.125 -0.375 -0.625 -0.375q-0.953125 0 -1.71875 1.1875l0 7.625l-1.4375 0l0 -9.828125l1.21875 0l0.109375 1.15625q0.4375 -0.65625 0.9375 -1.0q0.5 -0.359375 1.1875 -0.359375q1.375 0 1.765625 1.296875q0.453125 -0.625 0.953125 -0.953125q0.5 -0.34375 1.21875 -0.34375zm6.2874756 1.484375q1.140625 -1.484375 2.8125 -1.484375q1.890625 0 2.78125 1.34375q0.890625 1.34375 0.890625 3.765625q0 2.3125 -1.03125 3.71875q-1.015625 1.40625 -2.859375 1.40625q-1.703125 0 -2.671875 -1.234375l-0.109375 1.03125l-1.390625 0l0 -13.78125l1.578125 -0.1875l0 5.421875zm2.234375 7.484375q1.234375 0 1.890625 -0.96875q0.671875 -0.96875 0.671875 -2.890625q0 -1.90625 -0.59375 -2.875q-0.59375 -0.96875 -1.75 -0.96875q-0.734375 0 -1.359375 0.453125q-0.625 0.4375 -1.09375 1.109375l0 4.875q0.390625 0.59375 0.96875 0.9375q0.578125 0.328125 1.265625 0.328125zm8.631287 -3.296875q0.0625 1.609375 0.84375 2.4375q0.796875 0.828125 2.015625 0.828125q0.734375 0 1.328125 -0.21875q0.609375 -0.21875 1.296875 -0.671875l0.734375 1.046875q-0.6875 0.546875 -1.578125 0.84375q-0.890625 0.296875 -1.78125 0.296875q-2.125 0 -3.3125 -1.390625q-1.1875 -1.390625 -1.1875 -3.71875q0 -1.46875 0.515625 -2.640625q0.53125 -1.171875 1.5 -1.828125q0.96875 -0.65625 2.265625 -0.65625q1.859375 0 2.921875 1.296875q1.078125 1.296875 1.078125 3.53125q0 0.421875 -0.03125 0.84375l-6.609375 0zm2.65625 -4.390625q-1.140625 0 -1.859375 0.8125q-0.703125 0.8125 -0.796875 2.375l5.125 0q-0.03125 -1.546875 -0.6875 -2.359375q-0.640625 -0.828125 -1.78125 -0.828125zm13.928101 -1.28125q0.609375 0 1.390625 0.203125l-0.234375 3.328125l-1.265625 0l0 -2.09375l-0.09375 0q-2.265625 0 -3.21875 3.234375l0 4.140625l2.0 0l0 1.21875l-5.125 0l0 -1.21875l1.546875 0l0 -7.40625l-1.546875 0l0 -1.203125l2.734375 0l0.296875 2.328125q0.59375 -1.265625 1.421875 -1.890625q0.828125 -0.640625 2.09375 -0.640625z" fill-rule="nonzero"></path><path fill="#cc0000" d="m740.22046 46.015747l44.75592 -43.228344l44.75592 43.228344l-44.75592 43.228348z" fill-rule="evenodd"></path><path stroke="#000000" stroke-width="1.0" stroke-linejoin="round" stroke-linecap="butt" d="m740.22046 46.015747l44.75592 -43.228344l44.75592 43.228344l-44.75592 43.228348z" fill-rule="evenodd"></path><path fill="#ffffff" d="m784.9701 34.985744q3.9375 0 5.96875 3.046875q2.03125 3.03125 2.03125 8.5625q0 5.578125 -2.03125 8.640625q-2.03125 3.046875 -5.96875 3.046875q-3.9375 0 -5.96875 -3.046875q-2.03125 -3.0625 -2.03125 -8.640625q0 -5.53125 2.03125 -8.5625q2.03125 -3.046875 5.96875 -3.046875zm0 3.671875q-1.59375 0 -2.34375 1.84375q-0.75 1.84375 -0.75 6.09375q0 4.390625 0.75 6.21875q0.75 1.8125 2.34375 1.8125q1.640625 0 2.359375 -1.8125q0.71875 -1.828125 0.71875 -6.21875q0 -4.3125 -0.75 -6.125q-0.75 -1.8125 -2.328125 -1.8125zm-0.03125 5.953125q0.90625 0 1.515625 0.609375q0.609375 0.609375 0.609375 1.46875q0 0.90625 -0.609375 1.515625q-0.609375 0.609375 -1.515625 0.609375q-0.890625 0 -1.484375 -0.609375q-0.59375 -0.609375 -0.59375 -1.515625q0 -0.859375 0.59375 -1.46875q0.59375 -0.609375 1.484375 -0.609375z" fill-rule="nonzero"></path><path fill="#000000" fill-opacity="0.0" d="m618.45667 21.716536l121.763794 0l0 48.598427l-121.763794 0z" fill-rule="evenodd"></path><path fill="#000000" d="m636.12213 39.01153l0 9.625l-1.6875 0l0 -9.625l1.6875 0zm0.375 -3.015625q0 0.25 -0.09375 0.46875q-0.09375 0.203125 -0.265625 0.375q-0.171875 0.15625 -0.390625 0.25q-0.21875 0.09375 -0.453125 0.09375q-0.25 0 -0.46875 -0.09375q-0.21875 -0.09375 -0.390625 -0.25q-0.15625 -0.171875 -0.25 -0.375q-0.09375 -0.21875 -0.09375 -0.46875q0 -0.25 0.09375 -0.46875q0.09375 -0.234375 0.25 -0.390625q0.171875 -0.171875 0.390625 -0.265625q0.21875 -0.09375 0.46875 -0.09375q0.234375 0 0.453125 0.09375q0.21875 0.09375 0.390625 0.265625q0.171875 0.15625 0.265625 0.390625q0.09375 0.21875 0.09375 0.46875zm2.526001 12.640625l0 -9.625l1.0 0q0.359375 0 0.453125 0.359375l0.140625 1.03125q0.625 -0.6875 1.390625 -1.109375q0.78125 -0.4375 1.796875 -0.4375q0.796875 0 1.390625 0.265625q0.609375 0.265625 1.015625 0.75q0.40625 0.46875 0.609375 1.15625q0.203125 0.671875 0.203125 1.484375l0 6.125l-1.6875 0l0 -6.125q0 -1.09375 -0.5 -1.6875q-0.5 -0.609375 -1.515625 -0.609375q-0.75 0 -1.40625 0.359375q-0.65625 0.359375 -1.203125 0.96875l0 7.09375l-1.6875 0zm12.247864 -9.625l0 9.625l-1.6875 0l0 -9.625l1.6875 0zm0.375 -3.015625q0 0.25 -0.09375 0.46875q-0.09375 0.203125 -0.265625 0.375q-0.171875 0.15625 -0.390625 0.25q-0.21875 0.09375 -0.453125 0.09375q-0.25 0 -0.46875 -0.09375q-0.21875 -0.09375 -0.390625 -0.25q-0.15625 -0.171875 -0.25 -0.375q-0.09375 -0.21875 -0.09375 -0.46875q0 -0.25 0.09375 -0.46875q0.09375 -0.234375 0.25 -0.390625q0.171875 -0.171875 0.390625 -0.265625q0.21875 -0.09375 0.46875 -0.09375q0.234375 0 0.453125 0.09375q0.21875 0.09375 0.390625 0.265625q0.171875 0.15625 0.265625 0.390625q0.09375 0.21875 0.09375 0.46875zm5.432251 12.796875q-1.140625 0 -1.75 -0.640625q-0.609375 -0.640625 -0.609375 -1.828125l0 -5.890625l-1.15625 0q-0.15625 0 -0.265625 -0.09375q-0.09375 -0.09375 -0.09375 -0.28125l0 -0.671875l1.578125 -0.203125l0.390625 -2.96875q0.015625 -0.140625 0.109375 -0.234375q0.109375 -0.09375 0.28125 -0.09375l0.84375 0l0 3.3125l2.765625 0l0 1.234375l-2.765625 0l0 5.765625q0 0.609375 0.296875 0.90625q0.296875 0.296875 0.765625 0.296875q0.265625 0 0.453125 -0.0625q0.203125 -0.078125 0.34375 -0.15625q0.140625 -0.09375 0.234375 -0.15625q0.109375 -0.078125 0.1875 -0.078125q0.125 0 0.234375 0.15625l0.484375 0.8125q-0.4375 0.40625 -1.0625 0.640625q-0.609375 0.234375 -1.265625 0.234375zm5.9275513 -9.78125l0 9.625l-1.6875 0l0 -9.625l1.6875 0zm0.375 -3.015625q0 0.25 -0.09375 0.46875q-0.09375 0.203125 -0.265625 0.375q-0.171875 0.15625 -0.390625 0.25q-0.21875 0.09375 -0.453125 0.09375q-0.25 0 -0.46875 -0.09375q-0.21875 -0.09375 -0.390625 -0.25q-0.15625 -0.171875 -0.25 -0.375q-0.09375 -0.21875 -0.09375 -0.46875q0 -0.25 0.09375 -0.46875q0.09375 -0.234375 0.25 -0.390625q0.171875 -0.171875 0.390625 -0.265625q0.21875 -0.09375 0.46875 -0.09375q0.234375 0 0.453125 0.09375q0.21875 0.09375 0.390625 0.265625q0.171875 0.15625 0.265625 0.390625q0.09375 0.21875 0.09375 0.46875zm9.588501 12.640625l-0.75 0q-0.25 0 -0.40625 -0.078125q-0.140625 -0.078125 -0.1875 -0.328125l-0.1875 -0.890625q-0.390625 0.34375 -0.75 0.625q-0.359375 0.265625 -0.765625 0.453125q-0.390625 0.1875 -0.84375 0.28125q-0.453125 0.09375 -1.0 0.09375q-0.5625 0 -1.046875 -0.15625q-0.484375 -0.15625 -0.859375 -0.46875q-0.359375 -0.3125 -0.578125 -0.796875q-0.203125 -0.484375 -0.203125 -1.140625q0 -0.5625 0.3125 -1.09375q0.3125 -0.53125 1.0 -0.9375q0.703125 -0.40625 1.828125 -0.671875q1.140625 -0.265625 2.78125 -0.296875l0 -0.75q0 -1.125 -0.484375 -1.6875q-0.484375 -0.578125 -1.421875 -0.578125q-0.609375 0 -1.046875 0.15625q-0.421875 0.15625 -0.734375 0.359375q-0.296875 0.1875 -0.53125 0.34375q-0.21875 0.15625 -0.4375 0.15625q-0.171875 0 -0.296875 -0.09375q-0.125 -0.09375 -0.203125 -0.21875l-0.296875 -0.546875q0.796875 -0.765625 1.71875 -1.140625q0.921875 -0.390625 2.03125 -0.390625q0.8125 0 1.4375 0.265625q0.625 0.265625 1.046875 0.75q0.4375 0.46875 0.65625 1.140625q0.21875 0.671875 0.21875 1.484375l0 6.15625zm-4.390625 -1.03125q0.453125 0 0.8125 -0.09375q0.375 -0.09375 0.703125 -0.25q0.328125 -0.171875 0.625 -0.40625q0.296875 -0.25 0.59375 -0.546875l0 -2.0q-1.171875 0.03125 -2.0 0.1875q-0.8125 0.140625 -1.328125 0.375q-0.5 0.234375 -0.734375 0.5625q-0.234375 0.328125 -0.234375 0.71875q0 0.390625 0.125 0.671875q0.125 0.265625 0.328125 0.4375q0.203125 0.171875 0.484375 0.265625q0.296875 0.078125 0.625 0.078125zm8.661865 -12.96875l0 14.0l-1.6875 0l0 -14.0l1.6875 0zm1.588501 0.390625l1.46875 0q0.25 0 0.390625 0.125q0.15625 0.125 0.234375 0.3125l3.84375 9.59375q0.140625 0.328125 0.25 0.71875q0.109375 0.375 0.21875 0.78125q0.078125 -0.40625 0.171875 -0.78125q0.109375 -0.390625 0.234375 -0.71875l3.828125 -9.59375q0.078125 -0.171875 0.234375 -0.296875q0.15625 -0.140625 0.40625 -0.140625l1.46875 0l-5.546875 13.609375l-1.65625 0l-5.546875 -13.609375zm21.061218 13.609375l-0.75 0q-0.25 0 -0.40625 -0.078125q-0.140625 -0.078125 -0.1875 -0.328125l-0.1875 -0.890625q-0.390625 0.34375 -0.75 0.625q-0.359375 0.265625 -0.765625 0.453125q-0.390625 0.1875 -0.84375 0.28125q-0.453125 0.09375 -1.0 0.09375q-0.5625 0 -1.046875 -0.15625q-0.484375 -0.15625 -0.859375 -0.46875q-0.359375 -0.3125 -0.578125 -0.796875q-0.203125 -0.484375 -0.203125 -1.140625q0 -0.5625 0.3125 -1.09375q0.3125 -0.53125 1.0 -0.9375q0.703125 -0.40625 1.828125 -0.671875q1.140625 -0.265625 2.78125 -0.296875l0 -0.75q0 -1.125 -0.484375 -1.6875q-0.484375 -0.578125 -1.421875 -0.578125q-0.609375 0 -1.046875 0.15625q-0.421875 0.15625 -0.734375 0.359375q-0.296875 0.1875 -0.53125 0.34375q-0.21875 0.15625 -0.4375 0.15625q-0.171875 0 -0.296875 -0.09375q-0.125 -0.09375 -0.203125 -0.21875l-0.296875 -0.546875q0.796875 -0.765625 1.71875 -1.140625q0.921875 -0.390625 2.03125 -0.390625q0.8125 0 1.4375 0.265625q0.625 0.265625 1.046875 0.75q0.4375 0.46875 0.65625 1.140625q0.21875 0.671875 0.21875 1.484375l0 6.15625zm-4.390625 -1.03125q0.453125 0 0.8125 -0.09375q0.375 -0.09375 0.703125 -0.25q0.328125 -0.171875 0.625 -0.40625q0.296875 -0.25 0.59375 -0.546875l0 -2.0q-1.171875 0.03125 -2.0 0.1875q-0.8125 0.140625 -1.328125 0.375q-0.5 0.234375 -0.734375 0.5625q-0.234375 0.328125 -0.234375 0.71875q0 0.390625 0.125 0.671875q0.125 0.265625 0.328125 0.4375q0.203125 0.171875 0.484375 0.265625q0.296875 0.078125 0.625 0.078125zm8.661865 -12.96875l0 14.0l-1.6875 0l0 -14.0l1.6875 0zm4.354126 4.375l0 6.140625q0 1.09375 0.5 1.6875q0.515625 0.59375 1.53125 0.59375q0.734375 0 1.390625 -0.34375q0.65625 -0.359375 1.203125 -0.984375l0 -7.09375l1.703125 0l0 9.625l-1.015625 0q-0.359375 0 -0.453125 -0.34375l-0.125 -1.046875q-0.640625 0.703125 -1.421875 1.125q-0.765625 0.421875 -1.78125 0.421875q-0.78125 0 -1.390625 -0.265625q-0.59375 -0.265625 -1.015625 -0.734375q-0.40625 -0.484375 -0.609375 -1.15625q-0.203125 -0.671875 -0.203125 -1.484375l0 -6.140625l1.6875 0zm12.732239 -0.15625q0.859375 0 1.59375 0.296875q0.734375 0.28125 1.265625 0.828125q0.53125 0.546875 0.828125 1.359375q0.296875 0.796875 0.296875 1.828125q0 0.390625 -0.09375 0.53125q-0.078125 0.125 -0.3125 0.125l-6.40625 0q0.015625 0.921875 0.234375 1.59375q0.234375 0.671875 0.625 1.125q0.40625 0.453125 0.953125 0.671875q0.5625 0.21875 1.25 0.21875q0.640625 0 1.09375 -0.140625q0.453125 -0.140625 0.78125 -0.3125q0.34375 -0.171875 0.5625 -0.3125q0.234375 -0.15625 0.390625 -0.15625q0.203125 0 0.328125 0.15625l0.46875 0.625q-0.3125 0.375 -0.75 0.65625q-0.4375 0.28125 -0.9375 0.46875q-0.5 0.171875 -1.03125 0.265625q-0.53125 0.09375 -1.046875 0.09375q-1.0 0 -1.84375 -0.34375q-0.84375 -0.34375 -1.453125 -0.984375q-0.609375 -0.65625 -0.953125 -1.609375q-0.34375 -0.96875 -0.34375 -2.203125q0 -1.015625 0.3125 -1.890625q0.3125 -0.875 0.890625 -1.515625q0.578125 -0.640625 1.40625 -1.0q0.84375 -0.375 1.890625 -0.375zm0.03125 1.25q-1.21875 0 -1.921875 0.71875q-0.703125 0.703125 -0.875 1.953125l5.234375 0q0 -0.59375 -0.171875 -1.078125q-0.15625 -0.484375 -0.46875 -0.84375q-0.3125 -0.359375 -0.765625 -0.546875q-0.453125 -0.203125 -1.03125 -0.203125z" fill-rule="nonzero"></path><path fill="#000000" fill-opacity="0.0" d="m784.9764 89.244095l0 47.244095" fill-rule="evenodd"></path><path stroke="#cc0000" stroke-width="3.0" stroke-linejoin="round" stroke-linecap="butt" d="m784.9764 89.244095l0 29.244095" fill-rule="evenodd"></path><path fill="#cc0000" stroke="#cc0000" stroke-width="3.0" stroke-linecap="butt" d="m780.0212 118.48819l4.9552 13.614288l4.9552 -13.614288z" fill-rule="evenodd"></path><path fill="#000000" fill-opacity="0.0" d="m784.97375 204.94489l0 159.84253" fill-rule="evenodd"></path><path stroke="#cc0000" stroke-width="3.0" stroke-linejoin="round" stroke-linecap="butt" d="m784.97375 204.94489l0 141.84253" fill-rule="evenodd"></path><path fill="#cc0000" stroke="#cc0000" stroke-width="3.0" stroke-linecap="butt" d="m780.01855 346.7874l4.9552 13.614288l4.9552 -13.614288z" fill-rule="evenodd"></path><path fill="#000000" fill-opacity="0.0" d="m784.97284 433.25198l0 159.8425" fill-rule="evenodd"></path><path stroke="#cc0000" stroke-width="3.0" stroke-linejoin="round" stroke-linecap="butt" d="m784.97284 433.25198l0 141.8425" fill-rule="evenodd"></path><path fill="#cc0000" stroke="#cc0000" stroke-width="3.0" stroke-linecap="butt" d="m780.01764 575.0945l4.9552 13.614319l4.9552 -13.614319z" fill-rule="evenodd"></path><path fill="#cc0000" d="m740.21783 284.8609l44.75592 -43.228348l44.75592 43.228348l-44.75592 43.228333z" fill-rule="evenodd"></path><path stroke="#000000" stroke-width="1.0" stroke-linejoin="round" stroke-linecap="butt" d="m740.21783 284.8609l44.75592 -43.228348l44.75592 43.228348l-44.75592 43.228333z" fill-rule="evenodd"></path><path fill="#ffffff" d="m792.9987 292.73715l0 3.84375l-14.390625 0l0 -3.84375l5.34375 0l0 -13.375l-4.578125 2.875l-2.140625 -3.484375l7.171875 -4.34375l4.46875 0l0 18.328125l4.125 0z" fill-rule="nonzero"></path><path fill="#cc0000" d="m740.21783 513.1693l44.75592 -43.228363l44.75592 43.228363l-44.75592 43.228333z" fill-rule="evenodd"></path><path stroke="#000000" stroke-width="1.0" stroke-linejoin="round" stroke-linecap="butt" d="m740.21783 513.1693l44.75592 -43.228363l44.75592 43.228363l-44.75592 43.228333z" fill-rule="evenodd"></path><path fill="#ffffff" d="m786.88934 510.01428q1.765625 0 3.171875 0.859375q1.40625 0.859375 2.21875 2.546875q0.828125 1.671875 0.828125 3.953125q0 2.234375 -0.984375 4.078125q-0.96875 1.84375 -2.75 2.921875q-1.78125 1.0625 -4.140625 1.0625q-4.15625 0 -6.21875 -2.953125q-2.046875 -2.96875 -2.046875 -7.609375q0 -3.75 1.171875 -6.625q1.171875 -2.875 3.34375 -4.484375q2.171875 -1.625 5.125 -1.625q2.71875 0 4.796875 1.4375l-1.921875 3.078125q-1.28125 -0.90625 -2.8125 -0.90625q-1.859375 0 -3.0625 1.65625q-1.1875 1.640625 -1.359375 4.625q0.96875 -1.0 2.1875 -1.5q1.234375 -0.515625 2.453125 -0.515625zm-1.59375 11.796875q1.375 0 2.0625 -1.140625q0.6875 -1.15625 0.6875 -3.015625q0 -2.203125 -0.625 -3.171875q-0.625 -0.984375 -1.84375 -0.984375q-0.890625 0 -1.765625 0.453125q-0.859375 0.4375 -1.5625 1.234375q0.03125 3.4375 0.71875 5.03125q0.6875 1.59375 2.328125 1.59375z" fill-rule="nonzero"></path><path fill="#cc0000" d="m724.09186 766.1575l60.881897 -57.370117l60.881897 57.370117l-60.881897 57.370056z" fill-rule="evenodd"></path><path stroke="#000000" stroke-width="1.0" stroke-linejoin="round" stroke-linecap="butt" d="m724.09186 766.1575l60.881897 -57.370117l60.881897 57.370117l-60.881897 57.370056z" fill-rule="evenodd"></path><path fill="#ffffff" d="m783.3987 774.0337l0 3.84375l-14.390625 0l0 -3.84375l5.34375 0l0 -13.375l-4.578125 2.875l-2.140625 -3.484375l7.171875 -4.34375l4.46875 0l0 18.328125l4.125 0zm13.090698 -11.03125q1.765625 0 3.171875 0.859375q1.40625 0.859375 2.21875 2.546875q0.828125 1.671875 0.828125 3.953125q0 2.234375 -0.984375 4.078125q-0.96875 1.84375 -2.75 2.921875q-1.78125 1.0625 -4.140625 1.0625q-4.15625 0 -6.21875 -2.953125q-2.046875 -2.96875 -2.046875 -7.609375q0 -3.75 1.171875 -6.625q1.171875 -2.875 3.34375 -4.484375q2.171875 -1.625 5.125 -1.625q2.71875 0 4.796875 1.4375l-1.921875 3.078125q-1.28125 -0.90625 -2.8125 -0.90625q-1.859375 0 -3.0625 1.65625q-1.1875 1.640625 -1.359375 4.625q0.96875 -1.0 2.1875 -1.5q1.234375 -0.515625 2.453125 -0.515625zm-1.59375 11.796875q1.375 0 2.0625 -1.140625q0.6875 -1.15625 0.6875 -3.015625q0 -2.203125 -0.625 -3.171875q-0.625 -0.984375 -1.84375 -0.984375q-0.890625 0 -1.765625 0.453125q-0.859375 0.4375 -1.5625 1.234375q0.03125 3.4375 0.71875 5.03125q0.6875 1.59375 2.328125 1.59375z" fill-rule="nonzero"></path></g></svg>

