<?xml version="1.0" standalone="yes"?>

<svg version="1.1" viewBox="0.0 0.0 384.6482939632546 48.0" fill="none" stroke="none" stroke-linecap="square" stroke-miterlimit="10" xmlns="http://www.w3.org/2000/svg" xmlns:xlink="http://www.w3.org/1999/xlink"><clipPath id="p.0"><path d="m0 0l384.6483 0l0 48.0l-384.6483 0l0 -48.0z" clip-rule="nonzero"></path></clipPath><g clip-path="url(#p.0)"><path fill="#000000" fill-opacity="0.0" d="m0 0l384.6483 0l0 48.0l-384.6483 0z" fill-rule="evenodd"></path><path fill="#000000" fill-opacity="0.0" d="m0 8.00016l0 0c0 -4.4183664 3.5817935 -8.00016 8.00016 -8.00016l70.04692 0c2.1217804 0 4.1566467 0.8428716 5.656967 2.3431926c1.5003281 1.5003211 2.343193 3.535193 2.343193 5.6569676l0 31.99968c0 4.4183655 -3.581787 8.00016 -8.00016 8.00016l-70.04692 0c-4.4183664 0 -8.00016 -3.5817947 -8.00016 -8.00016z" fill-rule="evenodd"></path><path stroke="#9900ff" stroke-width="1.0" stroke-linejoin="round" stroke-linecap="butt" stroke-dasharray="8.0,3.0" d="m0 8.00016l0 0c0 -4.4183664 3.5817935 -8.00016 8.00016 -8.00016l70.04692 0c2.1217804 0 4.1566467 0.8428716 5.656967 2.3431926c1.5003281 1.5003211 2.343193 3.535193 2.343193 5.6569676l0 31.99968c0 4.4183655 -3.581787 8.00016 -8.00016 8.00016l-70.04692 0c-4.4183664 0 -8.00016 -3.5817947 -8.00016 -8.00016z" fill-rule="evenodd"></path><path fill="#9900ff" d="m37.96112 29.859999l-6.578125 0l0 -11.421875l6.578125 0l0 1.984375l-4.15625 0l0 2.5l3.875 0l0 1.984375l-3.875 0l0 2.953125l4.15625 0l0 2.0zm8.6484375 -3.171875q0 0.765625 -0.265625 1.375q-0.265625 0.609375 -0.765625 1.046875q-0.5 0.4375 -1.234375 0.671875q-0.734375 0.234375 -1.671875 0.234375q-0.828125 0 -1.609375 -0.171875q-0.765625 -0.171875 -1.421875 -0.515625l0 -2.25q0.375 0.171875 0.75 0.34375q0.390625 0.171875 0.78125 0.3125q0.40625 0.125 0.796875 0.203125q0.390625 0.078125 0.78125 0.078125q0.40625 0 0.6875 -0.09375q0.28125 -0.09375 0.453125 -0.25q0.1875 -0.15625 0.265625 -0.375q0.078125 -0.234375 0.078125 -0.5q0 -0.3125 -0.140625 -0.5625q-0.125 -0.25 -0.375 -0.453125q-0.25 -0.21875 -0.59375 -0.421875q-0.34375 -0.203125 -0.78125 -0.4375q-0.359375 -0.1875 -0.8125 -0.453125q-0.4375 -0.265625 -0.828125 -0.65625q-0.390625 -0.390625 -0.65625 -0.953125q-0.265625 -0.5625 -0.265625 -1.34375q0 -0.765625 0.25 -1.359375q0.25 -0.609375 0.71875 -1.03125q0.46875 -0.421875 1.140625 -0.640625q0.671875 -0.21875 1.5 -0.21875q0.40625 0 0.796875 0.0625q0.40625 0.046875 0.78125 0.15625q0.390625 0.09375 0.78125 0.25q0.390625 0.140625 0.8125 0.34375l-0.78125 1.875q-0.359375 -0.15625 -0.671875 -0.28125q-0.296875 -0.125 -0.59375 -0.203125q-0.28125 -0.09375 -0.5625 -0.140625q-0.265625 -0.046875 -0.546875 -0.046875q-0.609375 0 -0.9375 0.328125q-0.328125 0.328125 -0.328125 0.859375q0 0.296875 0.09375 0.515625q0.109375 0.21875 0.3125 0.421875q0.21875 0.1875 0.5625 0.390625q0.34375 0.203125 0.828125 0.46875q0.578125 0.3125 1.0625 0.640625q0.5 0.3125 0.859375 0.71875q0.359375 0.390625 0.546875 0.890625q0.203125 0.5 0.203125 1.171875zm1.2734375 -1.6875q0 -0.8125 0.09375 -1.625q0.09375 -0.8125 0.3125 -1.5625q0.234375 -0.75 0.625 -1.390625q0.40625 -0.640625 1.0 -1.109375q0.609375 -0.46875 1.453125 -0.734375q0.859375 -0.28125 1.984375 -0.28125q0.171875 0 0.359375 0.015625q0.203125 0 0.390625 0.015625q0.203125 0.015625 0.390625 0.046875q0.1875 0.015625 0.34375 0.046875l0 1.921875q-0.296875 -0.0625 -0.640625 -0.109375q-0.328125 -0.046875 -0.65625 -0.046875q-1.0625 0 -1.75 0.265625q-0.671875 0.265625 -1.078125 0.734375q-0.390625 0.46875 -0.5625 1.125q-0.15625 0.65625 -0.203125 1.453125l0.09375 0q0.15625 -0.28125 0.375 -0.53125q0.234375 -0.25 0.53125 -0.421875q0.296875 -0.171875 0.65625 -0.265625q0.375 -0.109375 0.84375 -0.109375q0.734375 0 1.328125 0.25q0.59375 0.234375 1.0 0.703125q0.421875 0.453125 0.640625 1.125q0.21875 0.671875 0.21875 1.53125q0 0.9375 -0.265625 1.671875q-0.265625 0.734375 -0.75 1.25q-0.484375 0.5 -1.171875 0.78125q-0.6875 0.265625 -1.546875 0.265625q-0.84375 0 -1.578125 -0.296875q-0.734375 -0.3125 -1.28125 -0.921875q-0.53125 -0.625 -0.84375 -1.5625q-0.3125 -0.9375 -0.3125 -2.234375zm3.96875 3.078125q0.328125 0 0.578125 -0.109375q0.265625 -0.125 0.453125 -0.375q0.203125 -0.25 0.296875 -0.625q0.109375 -0.375 0.109375 -0.890625q0 -0.828125 -0.34375 -1.3125q-0.34375 -0.484375 -1.0625 -0.484375q-0.359375 0 -0.65625 0.140625q-0.296875 0.140625 -0.515625 0.375q-0.203125 0.21875 -0.3125 0.5q-0.109375 0.28125 -0.109375 0.578125q0 0.390625 0.09375 0.796875q0.09375 0.390625 0.296875 0.703125q0.203125 0.3125 0.484375 0.515625q0.296875 0.1875 0.6875 0.1875z" fill-rule="nonzero"></path><path fill="#000000" fill-opacity="0.0" d="m117.870026 0l106.37387 0l0 47.989475l-106.37387 0z" fill-rule="evenodd"></path><path fill="#000000" fill-opacity="0.0" d="m131.16676 0l0 47.989475m79.780396 -47.989475l0 47.989475" fill-rule="evenodd"></path><path fill="#000000" fill-opacity="0.0" d="m117.870026 0l106.37387 0l0 47.989475l-106.37387 0z" fill-rule="evenodd"></path><path stroke="#000000" stroke-width="1.0" stroke-linejoin="round" stroke-linecap="butt" d="m131.16676 0l0 47.989475m79.780396 -47.989475l0 47.989475" fill-rule="evenodd"></path><path stroke="#000000" stroke-width="1.0" stroke-linejoin="round" stroke-linecap="butt" d="m117.870026 0l106.37387 0l0 47.989475l-106.37387 0z" fill-rule="evenodd"></path><path fill="#38761d" d="m149.28433 6.352236l3.703125 0q1.1875 0 2.09375 0.1875q0.90625 0.171875 1.515625 0.578125q0.609375 0.40625 0.90625 1.0625q0.3125 0.640625 0.3125 1.609375q0 0.5625 -0.1875 1.078125q-0.171875 0.5 -0.515625 0.875q-0.34375 0.375 -0.859375 0.640625q-0.5 0.25 -1.140625 0.328125l0 0.09375q0.640625 0.109375 1.203125 0.328125q0.5625 0.203125 0.96875 0.578125q0.421875 0.359375 0.65625 0.921875q0.25 0.546875 0.25 1.34375q0 0.9375 -0.296875 1.671875q-0.296875 0.71875 -0.875 1.234375q-0.5625 0.5 -1.390625 0.765625q-0.8125 0.265625 -1.84375 0.265625l-4.5 0l0 -13.5625zm1.734375 5.75l2.25 0q0.78125 0 1.3125 -0.140625q0.53125 -0.140625 0.859375 -0.40625q0.328125 -0.28125 0.46875 -0.6875q0.140625 -0.421875 0.140625 -0.96875q0 -1.109375 -0.71875 -1.59375q-0.703125 -0.484375 -2.25 -0.484375l-2.0625 0l0 4.28125zm0 1.453125l0 4.890625l2.46875 0q0.8125 0 1.359375 -0.1875q0.546875 -0.1875 0.890625 -0.515625q0.34375 -0.328125 0.484375 -0.796875q0.15625 -0.46875 0.15625 -1.046875q0 -0.515625 -0.15625 -0.953125q-0.15625 -0.4375 -0.5 -0.734375q-0.34375 -0.3125 -0.921875 -0.484375q-0.578125 -0.171875 -1.4375 -0.171875l-2.34375 0zm15.368546 6.359375l-0.34375 -1.40625l-0.078125 0q-0.296875 0.40625 -0.609375 0.71875q-0.3125 0.296875 -0.671875 0.5q-0.359375 0.1875 -0.8125 0.28125q-0.4375 0.09375 -1.0156403 0.09375q-0.640625 0 -1.1875 -0.1875q-0.53125 -0.171875 -0.9375 -0.546875q-0.390625 -0.375 -0.609375 -0.9375q-0.21875 -0.578125 -0.21875 -1.359375q0 -1.53125 1.0625 -2.34375q1.078125 -0.8125 3.2656403 -0.890625l1.703125 -0.0625l0 -0.640625q0 -0.625 -0.140625 -1.03125q-0.125 -0.421875 -0.390625 -0.671875q-0.25 -0.265625 -0.625 -0.375q-0.375 -0.109375 -0.84375 -0.109375q-0.78126526 0 -1.4531403 0.21875q-0.65625 0.21875 -1.265625 0.546875l-0.59375 -1.28125q0.6875 -0.375 1.53125 -0.625q0.84375 -0.265625 1.7812653 -0.265625q0.9375 0 1.625 0.203125q0.703125 0.1875 1.140625 0.59375q0.453125 0.40625 0.671875 1.046875q0.234375 0.640625 0.234375 1.546875l0 6.984375l-1.21875 0zm-3.09375 -1.171875q0.5625 0 1.046875 -0.171875q0.484375 -0.1875 0.828125 -0.546875q0.359375 -0.359375 0.546875 -0.890625q0.203125 -0.546875 0.203125 -1.28125l0 -0.921875l-1.328125 0.0625q-0.828125 0.046875 -1.40625 0.203125q-0.56251526 0.140625 -0.90626526 0.40625q-0.328125 0.265625 -0.484375 0.640625q-0.140625 0.375 -0.140625 0.84375q0 0.859375 0.453125 1.265625q0.453125 0.390625 1.1875153 0.390625zm11.855148 -9.203125q0.875 0 1.578125 0.34375q0.71875 0.328125 1.21875 1.0q0.515625 0.65625 0.78125 1.640625q0.28125 0.984375 0.28125 2.28125q0 1.3125 -0.28125 2.296875q-0.265625 0.984375 -0.78125 1.65625q-0.5 0.671875 -1.21875 1.015625q-0.703125 0.328125 -1.578125 0.328125q-0.546875 0 -1.0 -0.125q-0.4375 -0.125 -0.796875 -0.3125q-0.359375 -0.203125 -0.640625 -0.46875q-0.265625 -0.28125 -0.484375 -0.578125l-0.109375 0l-0.34375 1.296875l-1.234375 0l0 -14.4375l1.6875 0l0 3.484375q0 0.328125 -0.015625 0.703125q0 0.359375 -0.015625 0.671875q-0.015625 0.375 -0.03125 0.734375l0.0625 0q0.21875 -0.328125 0.484375 -0.609375q0.265625 -0.28125 0.625 -0.484375q0.359375 -0.203125 0.796875 -0.3125q0.453125 -0.125 1.015625 -0.125zm-0.328125 1.40625q-0.734375 0 -1.234375 0.234375q-0.5 0.234375 -0.8125 0.71875q-0.296875 0.484375 -0.421875 1.203125q-0.125 0.71875 -0.125 1.703125q0 0.9375 0.125 1.671875q0.125 0.71875 0.421875 1.21875q0.3125 0.5 0.8125 0.75q0.5 0.25 1.25 0.25q1.25 0 1.84375 -1.0q0.59375 -1.015625 0.59375 -2.90625q0 -1.9375 -0.59375 -2.890625q-0.59375 -0.953125 -1.859375 -0.953125zm10.6813965 9.15625q-1.015625 0 -1.859375 -0.34375q-0.84375 -0.34375 -1.453125 -1.0q-0.609375 -0.65625 -0.953125 -1.625q-0.328125 -0.984375 -0.328125 -2.234375q0 -1.265625 0.296875 -2.25q0.3125 -1.0 0.875 -1.6875q0.5625 -0.703125 1.328125 -1.0625q0.78125 -0.359375 1.71875 -0.359375q0.90625 0 1.640625 0.328125q0.734375 0.328125 1.25 0.9375q0.515625 0.59375 0.78125 1.4375q0.28125 0.828125 0.28125 1.859375l0 1.046875l-6.421875 0q0.046875 1.78125 0.75 2.625q0.71875 0.84375 2.109375 0.84375q0.46875 0 0.875 -0.03125q0.40625 -0.046875 0.78125 -0.140625q0.375 -0.09375 0.71875 -0.21875q0.359375 -0.140625 0.734375 -0.3125l0 1.515625q-0.375 0.171875 -0.734375 0.296875q-0.359375 0.125 -0.734375 0.203125q-0.375 0.09375 -0.78125 0.125q-0.40625 0.046875 -0.875 0.046875zm-0.421875 -9.15625q-1.046875 0 -1.671875 0.71875q-0.609375 0.71875 -0.71875 2.109375l4.5625 0q0 -0.625 -0.125 -1.15625q-0.125 -0.53125 -0.390625 -0.890625q-0.265625 -0.375 -0.671875 -0.578125q-0.40625 -0.203125 -0.984375 -0.203125zm8.062134 8.96875l-1.6875 0l0 -14.4375l1.6875 0l0 14.4375z" fill-rule="nonzero"></path><path fill="#ffffff" d="m161.55696 25.586609l19.0 0l0 19.0l-19.0 0l0 -19.0z" fill-rule="nonzero"></path><path fill="#38761d" d="m178.65071 32.68036q0.53125 1.734375 0.53125 3.28125q0 1.59375 -0.53125 3.5l-3.390625 0l-0.34375 -0.90625l-1.28125 0.3125l-2.0625 -0.21875q-0.1875 0.078125 -2.015625 0.21875q-0.71875 0.078125 -1.140625 0q-1.0 -0.15625 -1.390625 -0.296875l-0.921875 0.984375l-1.640625 0.640625q-0.359375 0.71875 -0.515625 -0.1875q-0.546875 0.265625 -0.28125 -0.484375l0.765625 -1.84375l0.5625 -0.140625q-0.296875 0.359375 -0.5 -0.390625q0.4375 -0.734375 0.796875 -2.25q0.359375 -1.4375 0.640625 -2.0625q1.625 -1.875 3.984375 -3.046875l0.953125 0.65625l1.328125 -1.578125q0.34375 -0.359375 0.78125 -0.359375q0.421875 0.109375 0.828125 0.40625q0.40625 0.515625 0.40625 0.875q0 0.5 -0.34375 0.734375l-0.953125 1.1875l1.828125 1.1875l0.296875 0l0.296875 -0.390625l3.3125 0.171875zm-2.0625 2.90625q0 1.375 -0.3125 2.59375l1.1875 -0.140625q0.203125 -0.65625 0.203125 -1.65625q0.078125 -1.328125 -0.390625 -2.40625l-0.84375 0q0.15625 0.5 0.15625 1.609375zm-3.140625 2.0625q0.671875 0 1.8125 -0.421875q0.171875 -1.078125 0.171875 -1.5q0 -0.875 -0.3125 -1.625l-0.9375 -0.0625q-0.984375 -0.40625 -2.15625 -1.265625l-0.734375 0.890625q0.03125 0.078125 0.03125 0.359375q0 0.8125 -0.421875 1.3125q-0.03125 0 1.71875 -1.375q-0.84375 1.984375 -1.21875 2.390625q-2.140625 0.0625 -2.703125 0.140625q-0.65625 0.125 -1.09375 0.4375q-0.21875 0.171875 -0.21875 0.4375q-0.125 0.1875 -0.09375 0.046875q0.03125 0.015625 0.5625 0.078125q0.09375 0.015625 0.09375 -0.09375q0.046875 -0.21875 -0.28125 -1.0l0.796875 -0.3125q0.640625 0.796875 0.5625 1.390625q0 0.4375 -0.34375 0.421875q0.015625 -0.25 0.609375 -0.25q1.21875 0 2.21875 -0.25q1.375 0.25 1.9375 0.25zm-4.078125 -2.0625q0 -0.25 0.046875 -0.25q0.65625 -0.703125 0.78125 -0.546875l-0.828125 0.796875zm-2.625 0.53125q0.390625 -0.59375 0.546875 -1.59375l2.9375 -3.171875q-0.09375 0.125 -0.4375 -0.140625q-0.03125 -0.03125 -0.109375 0q-1.328125 0.8125 -2.765625 2.40625q-0.21875 0.90625 -0.59375 1.59375l0.171875 0.015625l0.328125 0.890625l-0.328125 0.703125q-0.15625 0 0.25 -0.703125zm-1.1875 0.859375q-0.171875 -0.1875 -0.109375 -0.25q0.25 -0.296875 0.234375 -0.796875l0.265625 -0.046875q-0.078125 0.734375 -0.390625 1.09375zm-0.859375 2.078125q0.1875 0 0.703125 -0.328125q0.078125 0.125 -0.03125 0.21875q-0.15625 -0.21875 -0.359375 -0.40625q0.09375 -0.09375 0.203125 -0.09375q0.03125 0.171875 -0.078125 0.34375q-0.078125 0.28125 -0.234375 0.578125q-0.203125 -0.09375 -0.203125 -0.3125z" fill-rule="nonzero"></path><path fill="#000000" fill-opacity="0.0" d="m224.2439 17.42573l60.582672 0l0 -6.5590544l13.118103 13.11811l-13.118103 13.118109l0 -6.5590534l-60.582672 0z" fill-rule="evenodd"></path><path stroke="#000000" stroke-width="1.0" stroke-linejoin="round" stroke-linecap="butt" d="m224.2439 17.42573l60.582672 0l0 -6.5590544l13.118103 13.11811l-13.118103 13.118109l0 -6.5590534l-60.582672 0z" fill-rule="evenodd"></path><path fill="#38761d" d="m235.77515 22.289785q0.125 0 0.265625 0.015625q0.140625 0.015625 0.234375 0.03125l-0.09375 0.65625q-0.109375 -0.015625 -0.234375 -0.03125q-0.109375 -0.015625 -0.203125 -0.015625q-0.25 0 -0.453125 0.109375q-0.203125 0.09375 -0.359375 0.28125q-0.140625 0.171875 -0.21875 0.4375q-0.078125 0.265625 -0.078125 0.578125l0 2.3125l-0.703125 0l0 -4.296875l0.578125 0l0.078125 0.796875l0.03125 0q0.09375 -0.171875 0.203125 -0.328125q0.125 -0.15625 0.25 -0.265625q0.140625 -0.125 0.3125 -0.203125q0.171875 -0.078125 0.390625 -0.078125zm3.0351562 4.453125q-0.421875 0 -0.78125 -0.140625q-0.359375 -0.15625 -0.625 -0.421875q-0.25 -0.28125 -0.390625 -0.6875q-0.140625 -0.421875 -0.140625 -0.9375q0 -0.53125 0.125 -0.953125q0.140625 -0.421875 0.375 -0.703125q0.234375 -0.296875 0.5625 -0.453125q0.328125 -0.15625 0.71875 -0.15625q0.390625 0 0.6875 0.140625q0.3125 0.140625 0.53125 0.390625q0.21875 0.25 0.328125 0.609375q0.109375 0.359375 0.109375 0.78125l0 0.4375l-2.703125 0q0.03125 0.765625 0.328125 1.125q0.296875 0.34375 0.890625 0.34375q0.1875 0 0.359375 -0.015625q0.171875 -0.015625 0.328125 -0.046875q0.15625 -0.046875 0.296875 -0.09375q0.15625 -0.0625 0.3125 -0.140625l0 0.640625q-0.15625 0.0625 -0.3125 0.125q-0.140625 0.046875 -0.296875 0.078125q-0.15625 0.046875 -0.328125 0.0625q-0.171875 0.015625 -0.375 0.015625zm-0.171875 -3.859375q-0.453125 0 -0.71875 0.3125q-0.25 0.296875 -0.296875 0.875l1.921875 0q0 -0.265625 -0.046875 -0.484375q-0.046875 -0.21875 -0.171875 -0.375q-0.109375 -0.15625 -0.28125 -0.234375q-0.171875 -0.09375 -0.40625 -0.09375zm4.0625 3.28125q0.0625 0 0.140625 0q0.09375 -0.015625 0.171875 -0.03125q0.09375 -0.015625 0.15625 -0.03125q0.078125 -0.015625 0.109375 -0.03125l0 0.546875q-0.046875 0.015625 -0.125 0.046875q-0.078125 0.03125 -0.171875 0.046875q-0.09375 0.015625 -0.203125 0.015625q-0.09375 0.015625 -0.203125 0.015625q-0.234375 0 -0.453125 -0.0625q-0.203125 -0.0625 -0.359375 -0.21875q-0.140625 -0.15625 -0.234375 -0.40625q-0.078125 -0.265625 -0.078125 -0.65625l0 -2.484375l-0.609375 0l0 -0.328125l0.609375 -0.296875l0.3125 -0.90625l0.40625 0l0 0.984375l1.078125 0l0 0.546875l-1.078125 0l0 2.484375q0 0.375 0.125 0.578125q0.125 0.1875 0.40625 0.1875zm4.1796875 0.5l-0.09375 -0.578125l-0.046875 0q-0.09375 0.171875 -0.234375 0.296875q-0.125 0.125 -0.296875 0.203125q-0.15625 0.078125 -0.34375 0.109375q-0.171875 0.046875 -0.359375 0.046875q-0.359375 0 -0.625 -0.09375q-0.265625 -0.09375 -0.453125 -0.28125q-0.171875 -0.1875 -0.265625 -0.484375q-0.09375 -0.296875 -0.09375 -0.703125l0 -2.8125l0.71875 0l0 2.765625q0 0.515625 0.203125 0.765625q0.203125 0.25 0.640625 0.25q0.3125 0 0.53125 -0.09375q0.21875 -0.109375 0.34375 -0.296875q0.125 -0.203125 0.1875 -0.484375q0.0625 -0.296875 0.0625 -0.671875l0 -2.234375l0.703125 0l0 4.296875l-0.578125 0zm3.7890625 -4.375q0.125 0 0.265625 0.015625q0.140625 0.015625 0.234375 0.03125l-0.09375 0.65625q-0.109375 -0.015625 -0.234375 -0.03125q-0.109375 -0.015625 -0.203125 -0.015625q-0.25 0 -0.453125 0.109375q-0.203125 0.09375 -0.359375 0.28125q-0.140625 0.171875 -0.21875 0.4375q-0.078125 0.265625 -0.078125 0.578125l0 2.3125l-0.703125 0l0 -4.296875l0.578125 0l0.078125 0.796875l0.03125 0q0.09375 -0.171875 0.203125 -0.328125q0.125 -0.15625 0.25 -0.265625q0.140625 -0.125 0.3125 -0.203125q0.171875 -0.078125 0.390625 -0.078125zm4.0195312 4.375l0 -2.765625q0 -0.5 -0.203125 -0.75q-0.203125 -0.265625 -0.640625 -0.265625q-0.3125 0 -0.53125 0.109375q-0.21875 0.09375 -0.359375 0.296875q-0.125 0.203125 -0.1875 0.5q-0.046875 0.28125 -0.046875 0.65625l0 2.21875l-0.703125 0l0 -4.296875l0.578125 0l0.09375 0.578125l0.046875 0q0.09375 -0.15625 0.21875 -0.28125q0.140625 -0.125 0.296875 -0.203125q0.171875 -0.09375 0.34375 -0.125q0.1875 -0.046875 0.375 -0.046875q0.703125 0 1.0625 0.375q0.375 0.375 0.375 1.203125l0 2.796875l-0.71875 0zm4.6015625 -1.171875q0 0.3125 -0.125 0.546875q-0.109375 0.234375 -0.328125 0.390625q-0.203125 0.15625 -0.5 0.234375q-0.296875 0.078125 -0.671875 0.078125q-0.4375 0 -0.75 -0.078125q-0.296875 -0.0625 -0.515625 -0.1875l0 -0.65625q0.109375 0.0625 0.25 0.125q0.15625 0.0625 0.3125 0.109375q0.171875 0.046875 0.34375 0.078125q0.1875 0.03125 0.359375 0.03125q0.25 0 0.421875 -0.046875q0.1875 -0.046875 0.296875 -0.125q0.109375 -0.078125 0.15625 -0.1875q0.046875 -0.125 0.046875 -0.265625q0 -0.125 -0.046875 -0.21875q-0.03125 -0.09375 -0.140625 -0.1875q-0.09375 -0.09375 -0.28125 -0.1875q-0.171875 -0.109375 -0.453125 -0.234375q-0.28125 -0.109375 -0.515625 -0.21875q-0.21875 -0.125 -0.375 -0.265625q-0.15625 -0.15625 -0.234375 -0.34375q-0.078125 -0.1875 -0.078125 -0.453125q0 -0.265625 0.09375 -0.484375q0.109375 -0.21875 0.296875 -0.359375q0.203125 -0.140625 0.46875 -0.21875q0.28125 -0.078125 0.625 -0.078125q0.375 0 0.6875 0.09375q0.3125 0.078125 0.59375 0.203125l-0.234375 0.578125q-0.265625 -0.109375 -0.53125 -0.1875q-0.265625 -0.09375 -0.546875 -0.09375q-0.390625 0 -0.59375 0.140625q-0.1875 0.125 -0.1875 0.359375q0 0.140625 0.046875 0.25q0.046875 0.09375 0.15625 0.1875q0.109375 0.09375 0.296875 0.1875q0.1875 0.078125 0.453125 0.203125q0.28125 0.109375 0.5 0.234375q0.21875 0.109375 0.375 0.265625q0.15625 0.140625 0.234375 0.328125q0.09375 0.1875 0.09375 0.453125z" fill-rule="nonzero"></path><path fill="#000000" fill-opacity="0.0" d="m86.04724 24.0l31.811028 0" fill-rule="evenodd"></path><path stroke="#351c75" stroke-width="1.0" stroke-linejoin="round" stroke-linecap="butt" d="m86.04724 24.0l28.383942 0" fill-rule="evenodd"></path><path fill="#351c75" stroke="#351c75" stroke-width="1.0" stroke-linecap="butt" d="m114.43118 24.0l-1.124588 1.1245842l3.0897675 -1.1245842l-3.0897675 -1.1245842z" fill-rule="evenodd"></path><path fill="#000000" fill-opacity="0.0" d="m297.94766 8.00016l0 0c0 -4.4183664 3.581787 -8.00016 8.000153 -8.00016l70.046936 0c2.1217651 0 4.1566467 0.8428716 5.6569824 2.3431926c1.5003052 1.5003211 2.3431702 3.535193 2.3431702 5.6569676l0 31.99968c0 4.4183655 -3.581787 8.00016 -8.000153 8.00016l-70.046936 0c-4.4183655 0 -8.000153 -3.5817947 -8.000153 -8.00016z" fill-rule="evenodd"></path><path stroke="#9900ff" stroke-width="1.0" stroke-linejoin="round" stroke-linecap="butt" stroke-dasharray="8.0,3.0" d="m297.94766 8.00016l0 0c0 -4.4183664 3.581787 -8.00016 8.000153 -8.00016l70.046936 0c2.1217651 0 4.1566467 0.8428716 5.6569824 2.3431926c1.5003052 1.5003211 2.3431702 3.535193 2.3431702 5.6569676l0 31.99968c0 4.4183655 -3.581787 8.00016 -8.000153 8.00016l-70.046936 0c-4.4183655 0 -8.000153 -3.5817947 -8.000153 -8.00016z" fill-rule="evenodd"></path><path fill="#9900ff" d="m335.90878 29.859999l-6.578125 0l0 -11.421875l6.578125 0l0 1.984375l-4.15625 0l0 2.5l3.875 0l0 1.984375l-3.875 0l0 2.953125l4.15625 0l0 2.0zm8.6484375 -3.171875q0 0.765625 -0.265625 1.375q-0.265625 0.609375 -0.765625 1.046875q-0.5 0.4375 -1.234375 0.671875q-0.734375 0.234375 -1.671875 0.234375q-0.828125 0 -1.609375 -0.171875q-0.765625 -0.171875 -1.421875 -0.515625l0 -2.25q0.375 0.171875 0.75 0.34375q0.390625 0.171875 0.78125 0.3125q0.40625 0.125 0.796875 0.203125q0.390625 0.078125 0.78125 0.078125q0.40625 0 0.6875 -0.09375q0.28125 -0.09375 0.453125 -0.25q0.1875 -0.15625 0.265625 -0.375q0.078125 -0.234375 0.078125 -0.5q0 -0.3125 -0.140625 -0.5625q-0.125 -0.25 -0.375 -0.453125q-0.25 -0.21875 -0.59375 -0.421875q-0.34375 -0.203125 -0.78125 -0.4375q-0.359375 -0.1875 -0.8125 -0.453125q-0.4375 -0.265625 -0.828125 -0.65625q-0.390625 -0.390625 -0.65625 -0.953125q-0.265625 -0.5625 -0.265625 -1.34375q0 -0.765625 0.25 -1.359375q0.25 -0.609375 0.71875 -1.03125q0.46875 -0.421875 1.140625 -0.640625q0.671875 -0.21875 1.5 -0.21875q0.40625 0 0.796875 0.0625q0.40625 0.046875 0.78125 0.15625q0.390625 0.09375 0.78125 0.25q0.390625 0.140625 0.8125 0.34375l-0.78125 1.875q-0.359375 -0.15625 -0.671875 -0.28125q-0.296875 -0.125 -0.59375 -0.203125q-0.28125 -0.09375 -0.5625 -0.140625q-0.265625 -0.046875 -0.546875 -0.046875q-0.609375 0 -0.9375 0.328125q-0.328125 0.328125 -0.328125 0.859375q0 0.296875 0.09375 0.515625q0.109375 0.21875 0.3125 0.421875q0.21875 0.1875 0.5625 0.390625q0.34375 0.203125 0.828125 0.46875q0.578125 0.3125 1.0625 0.640625q0.5 0.3125 0.859375 0.71875q0.359375 0.390625 0.546875 0.890625q0.203125 0.5 0.203125 1.171875zm5.3515625 -4.125q0.734375 0 1.359375 0.234375q0.640625 0.21875 1.109375 0.65625q0.46875 0.4375 0.734375 1.09375q0.265625 0.640625 0.265625 1.484375q0 0.9375 -0.296875 1.671875q-0.28125 0.734375 -0.84375 1.25q-0.5625 0.515625 -1.390625 0.796875q-0.828125 0.265625 -1.90625 0.265625q-0.4375 0 -0.859375 -0.046875q-0.421875 -0.03125 -0.8125 -0.109375q-0.375 -0.078125 -0.734375 -0.1875q-0.34375 -0.125 -0.625 -0.28125l0 -2.078125q0.28125 0.15625 0.640625 0.296875q0.359375 0.125 0.734375 0.234375q0.390625 0.09375 0.78125 0.15625q0.390625 0.046875 0.75 0.046875q1.046875 0 1.59375 -0.421875q0.546875 -0.4375 0.546875 -1.390625q0 -0.84375 -0.546875 -1.28125q-0.53125 -0.4375 -1.640625 -0.4375q-0.203125 0 -0.4375 0.03125q-0.234375 0.015625 -0.453125 0.0625q-0.21875 0.03125 -0.421875 0.078125q-0.203125 0.03125 -0.359375 0.078125l-0.953125 -0.515625l0.421875 -5.8125l6.03125 0l0 2.046875l-3.9375 0l-0.1875 2.234375q0.25 -0.046875 0.578125 -0.09375q0.34375 -0.0625 0.859375 -0.0625z" fill-rule="nonzero"></path></g></svg>

